<svg xmlns="http://www.w3.org/2000/svg" version="1.1" xmlns:xlink="http://www.w3.org/1999/xlink" xmlns:svgjs="http://svgjs.dev/svgjs" width="1500" height="329" viewBox="0 0 1500 329"><g transform="matrix(1,0,0,1,-0.9090909090911055,-1.8890506394348279)"><svg viewBox="0 0 396 87" data-background-color="#e9e2da" preserveAspectRatio="xMidYMid meet" height="329" width="1500" xmlns="http://www.w3.org/2000/svg" xmlns:xlink="http://www.w3.org/1999/xlink"><g id="tight-bounds" transform="matrix(1,0,0,1,0.24000000000003752,0.49953618732774885)"><svg viewBox="0 0 395.5199999999999 86.0009276253445" height="86.0009276253445" width="395.5199999999999"><g><svg viewBox="0 0 404.7977651394146 88.0182628" height="86.0009276253445" width="395.5199999999999"><g><svg viewBox="0 0 404.7977651394146 88.0182628" height="88.0182628" width="404.7977651394146"><g id="textblocktransform"><svg viewBox="0 0 404.7977651394146 88.0182628" height="88.0182628" width="404.7977651394146" id="textblock"><g><svg viewBox="0 0 404.7977651394146 65.2054" height="65.2054" width="404.7977651394146"><g><svg><g></g><g></g></svg></g><g><svg><g><svg></svg></g><g></g></svg></g><g id="text-0"><svg viewBox="0 0 404.7977651394146 65.2054" height="65.2054" width="404.7977651394146"><g transform="matrix(1,0,0,1,0,12.452699999999997)"><svg width="131.90000000000003" viewBox="0.4 -39.6 131.89 40.300000000000004" height="40.300000000000004" data-palette-color="#ed274f"><path d="M16.5 0.7Q11.7 0.7 7.43-0.13 3.15-0.95 0.85-2L0.85-2 0.85-11.9 11.85-11.9Q11.85-10.35 12.55-9.65 13.25-8.95 15.1-8.95L15.1-8.95Q16.65-8.95 17.32-9.43 18-9.9 18-10.85L18-10.85Q18-11.65 17.35-12.23 16.7-12.8 15.1-13.4L15.1-13.4 10.8-14.9Q5.25-17 2.83-19.85 0.4-22.7 0.4-27.55L0.4-27.55Q0.4-33.45 4.28-36.52 8.15-39.6 17.2-39.6L17.2-39.6Q21.55-39.6 25.38-38.73 29.2-37.85 31.55-36.4L31.55-36.4 31.55-27.45 21.55-27.45Q21.55-29.95 18.45-29.95L18.45-29.95Q16.95-29.95 16.32-29.58 15.7-29.2 15.7-28.25L15.7-28.25Q15.7-27.4 16.43-26.9 17.15-26.4 18.8-25.85L18.8-25.85 23.15-24.35Q28.45-22.55 30.88-19.68 33.3-16.8 33.3-12.15L33.3-12.15Q33.3-5.8 29.03-2.55 24.75 0.7 16.5 0.7L16.5 0.7ZM49.5 0.7Q42.4 0.7 38.4-3.03 34.4-6.75 34.4-13.9L34.4-13.9Q34.4-21.05 38.4-24.78 42.4-28.5 49.5-28.5L49.5-28.5Q56.7-28.5 60.65-24.73 64.6-20.95 64.6-13.9L64.6-13.9Q64.6-6.75 60.6-3.03 56.6 0.7 49.5 0.7L49.5 0.7ZM49.5-8.2Q50.95-8.2 51.67-8.97 52.4-9.75 52.4-11.4L52.4-11.4 52.4-16.4Q52.4-18.05 51.67-18.82 50.95-19.6 49.5-19.6L49.5-19.6Q48.05-19.6 47.32-18.82 46.6-18.05 46.6-16.4L46.6-16.4 46.6-11.4Q46.6-9.75 47.32-8.97 48.05-8.2 49.5-8.2L49.5-8.2ZM82.1 0.05L66.2 0.05 66.2-8.2 68.4-8.2 68.4-30.7 66.2-30.7 66.2-38.9 79.9-38.9 79.9-8.2 82.1-8.2 82.1 0.05ZM96.29-30.55L86.09-30.55 86.09-38.9 96.29-38.9 96.29-30.55ZM99.59 0L83.69 0 83.69-8.2 85.89-8.2 85.89-19.6 83.69-19.6 83.69-27.8 97.39-27.8 97.39-8.2 99.59-8.2 99.59 0ZM110.84 0.7Q105.74 0.7 103.17-3.1 100.59-6.9 100.59-13.9L100.59-13.9Q100.59-20.9 103.17-24.7 105.74-28.5 110.84-28.5L110.84-28.5Q113.39-28.5 115.37-27.25 117.34-26 118.59-24.4L118.59-24.4 118.59-30.7 115.64-30.7 115.64-38.9 130.09-38.9 130.09-8.2 132.29-8.2 132.29 0 118.59 0 118.59-3.4Q117.34-1.8 115.37-0.55 113.39 0.7 110.84 0.7L110.84 0.7ZM115.69-8.2Q117.14-8.2 117.87-8.97 118.59-9.75 118.59-11.4L118.59-11.4 118.59-16.4Q118.59-18.05 117.87-18.82 117.14-19.6 115.69-19.6L115.69-19.6Q114.24-19.6 113.52-18.82 112.79-18.05 112.79-16.4L112.79-16.4 112.79-11.4Q112.79-9.75 113.52-8.97 114.24-8.2 115.69-8.2L115.69-8.2Z" opacity="1" transform="matrix(1,0,0,1,0,0)" fill="#ed274f" class="undefined-tk-0" data-fill-palette-color="primary"></path></svg></g><g><svg xmlns="http://www.w3.org/2000/svg" xmlns:xlink="http://www.w3.org/1999/xlink" version="1.1" x="147.29460000000003" y="0" viewBox="4.079932931019735 1.8889622642087467 92.31560299150519 97.11103773579126" enable-background="new 0 0 100 100" xml:space="preserve" height="65.2054" width="61.985495775252666" class="icon-dxe-0" data-fill-palette-color="accent" id="dxe-0"><g fill="#1b2141" data-fill-palette-color="accent"><path d="M96.187 73.923A1.6 1.6 0 0 0 96.006 73.648L42.835 2.751C42.695 2.557 42.514 2.261 42.296 2.13 42.296 2.13 42.296 2 42.294 2H42.293C42.231 2 42.166 2.056 42.099 2.027 41.693 1.847 41.255 1.86 40.863 1.969 40.86 1.97 40.86 2 40.86 2H40.857A0.6 0.6 0 0 0 40.592 2.047S40.592 2 40.59 2H40.589C40.269 2 39.992 2.486 39.805 2.812 39.782 2.847 39.763 2.93 39.743 2.972L4.289 73.901A2 2 0 0 0 4.151 74.255C4.075 74.516 4.061 74.785 4.104 75.043 4.145 75.305 4.243 75.562 4.4 75.792 4.469 75.891 4.548 75.987 4.639 76.072L26.772 98.342C27.035 98.614 27.385 99 27.787 99H27.849C27.921 99 27.994 98.883 28.064 98.883 28.274 98.883 28.479 98.782 28.668 98.712L95.12 76.527C95.222 76.498 95.321 76.439 95.416 76.39A2 2 0 0 0 95.929 75.989 1.86 1.86 0 0 0 96.381 74.525 1.8 1.8 0 0 0 96.187 73.923M26.784 93.108L8.09 74.41 38.002 14.582zM30.267 94.302L42.54 8.384 91.634 73.844z" fill="#1b2141" data-fill-palette-color="accent"></path></g></svg></g><g transform="matrix(1,0,0,1,224.6746957752527,12.4527)"><svg width="180.1230693641619" viewBox="0.4 -39.6 180.11306936416184 40.300000000000004" height="40.3" data-palette-color="#1b2141"><g transform="matrix(1,0,0,1,0,0)"><g><svg width="21.482046242774565" viewBox="2.59 -36.86 90.89 36.86" height="8.712" data-palette-color="#ed274f" id="scriptelement" x="159.03102312138728" y="-8.712"><path d="M28.87 0L2.95 0 2.95-5.54 15.89-17.52Q17.54-19.12 18.67-20.4 19.8-21.68 20.38-22.91 20.97-24.15 20.97-25.59L20.97-25.59Q20.97-27.18 20.24-28.35 19.51-29.51 18.25-30.14 16.99-30.77 15.39-30.77L15.39-30.77Q13.73-30.77 12.48-30.1 11.24-29.42 10.56-28.16 9.89-26.9 9.89-25.16L9.89-25.16 2.59-25.16Q2.59-28.73 4.21-31.36 5.82-33.98 8.74-35.42 11.65-36.86 15.45-36.86L15.45-36.86Q19.35-36.86 22.26-35.48 25.16-34.11 26.78-31.68 28.39-29.24 28.39-26.1L28.39-26.1Q28.39-24.04 27.58-22.03 26.78-20.03 24.72-17.59 22.66-15.15 18.91-11.74L18.91-11.74 13.6-6.53 13.6-6.29 28.87-6.29 28.87 0ZM62.43-6.39L33.11-6.39 33.11-12.45 48.29-36.36 53.51-36.36 53.51-27.98 50.42-27.98 40.85-12.84 40.85-12.55 62.43-12.55 62.43-6.39ZM57.92 0L50.57 0 50.57-8.24 50.71-10.92 50.71-36.36 57.92-36.36 57.92 0ZM93.48 0L67.56 0 67.56-5.54 80.5-17.52Q82.15-19.12 83.28-20.4 84.41-21.68 84.99-22.91 85.58-24.15 85.58-25.59L85.58-25.59Q85.58-27.18 84.85-28.35 84.12-29.51 82.86-30.14 81.6-30.77 80-30.77L80-30.77Q78.33-30.77 77.09-30.1 75.85-29.42 75.17-28.16 74.5-26.9 74.5-25.16L74.5-25.16 67.2-25.16Q67.2-28.73 68.82-31.36 70.43-33.98 73.34-35.42 76.26-36.86 80.06-36.86L80.06-36.86Q83.96-36.86 86.86-35.48 89.77-34.11 91.38-31.68 93-29.24 93-26.1L93-26.1Q93-24.04 92.19-22.03 91.38-20.03 89.32-17.59 87.26-15.15 83.52-11.74L83.52-11.74 78.21-6.53 78.21-6.29 93.48-6.29 93.48 0Z" opacity="1" transform="matrix(1,0,0,1,0,0)" fill="#1b2141" class="undefined-123" data-fill-palette-color="secondary" id="tk-123"></path></svg></g></g><path d="M16.5 0.7Q11.7 0.7 7.43-0.13 3.15-0.95 0.85-2L0.85-2 0.85-11.9 11.85-11.9Q11.85-10.35 12.55-9.65 13.25-8.95 15.1-8.95L15.1-8.95Q16.65-8.95 17.32-9.43 18-9.9 18-10.85L18-10.85Q18-11.65 17.35-12.23 16.7-12.8 15.1-13.4L15.1-13.4 10.8-14.9Q5.25-17 2.83-19.85 0.4-22.7 0.4-27.55L0.4-27.55Q0.4-33.45 4.28-36.52 8.15-39.6 17.2-39.6L17.2-39.6Q21.55-39.6 25.38-38.73 29.2-37.85 31.55-36.4L31.55-36.4 31.55-27.45 21.55-27.45Q21.55-29.95 18.45-29.95L18.45-29.95Q16.95-29.95 16.32-29.58 15.7-29.2 15.7-28.25L15.7-28.25Q15.7-27.4 16.43-26.9 17.15-26.4 18.8-25.85L18.8-25.85 23.15-24.35Q28.45-22.55 30.88-19.68 33.3-16.8 33.3-12.15L33.3-12.15Q33.3-5.8 29.03-2.55 24.75 0.7 16.5 0.7L16.5 0.7ZM46.95 0.7Q41.65 0.7 38.97-1.88 36.3-4.45 36.3-10.55L36.3-10.55 36.3-19.6 34.1-19.6 34.1-27.8Q36-27.8 36.95-28.78 37.9-29.75 37.9-31.45L37.9-31.45 37.9-33.7 48.5-33.7 48.5-27.8 55.25-27.8 55.25-19.6 48.5-19.6 48.5-11.4Q48.5-9.75 49.22-8.97 49.95-8.2 51.4-8.2L51.4-8.2Q53.3-8.2 55.55-8.65L55.55-8.65 55.55-0.8Q54.15-0.25 51.77 0.23 49.4 0.7 46.95 0.7L46.95 0.7ZM84.09-8.2L86.3-8.2 86.3 0 73.09 0 73.09-3.4Q72-1.8 70.02-0.55 68.05 0.7 65.2 0.7L65.2 0.7Q61.45 0.7 59.3-1.3 57.15-3.3 57.15-6.95L57.15-6.95Q57.15-16.4 73.2-16.65L73.2-16.65Q73.05-18.35 71.9-18.98 70.75-19.6 68-19.6L68-19.6Q65.75-19.6 63.17-19.13 60.6-18.65 58.45-17.85L58.45-17.85 58.45-27.05Q61.1-27.7 64.2-28.1 67.3-28.5 70.25-28.5L70.25-28.5Q77.7-28.5 80.9-25.8 84.09-23.1 84.09-17.45L84.09-17.45 84.09-8.2ZM73.09-11.4L73.09-11.7Q70.84-11.7 69.62-11.1 68.4-10.5 68.4-9.1L68.4-9.1Q68.4-8.25 68.92-7.73 69.45-7.2 70.4-7.2L70.4-7.2Q71.7-7.2 72.4-8.3 73.09-9.4 73.09-11.4L73.09-11.4ZM102.84 0.7Q95.69 0.7 91.69-3.03 87.69-6.75 87.69-13.9L87.69-13.9Q87.69-21.05 91.69-24.78 95.69-28.5 102.79-28.5L102.79-28.5Q106.24-28.5 109.39-27.55 112.54-26.6 114.29-25.4L114.29-25.4 114.29-15.5 105.69-15.5 105.69-16.4Q105.69-18.05 104.99-18.82 104.29-19.6 102.79-19.6L102.79-19.6Q99.89-19.6 99.89-16.4L99.89-16.4 99.89-12.1Q99.89-8.2 104.34-8.2L104.34-8.2Q108.49-8.2 113.99-9.1L113.99-9.1 113.99-1.25Q112.29-0.5 109.22 0.1 106.14 0.7 102.84 0.7L102.84 0.7ZM141.34-14.85L146.14-8.2 148.29-8.2 148.29 0 136.04 0 130.89-9.6 129.69-9.6 129.69 0 115.99 0 115.99-8.2 118.19-8.2 118.19-30.7 115.99-30.7 115.99-38.9 129.69-38.9 129.69-18.6 130.89-18.6 137.09-27.8 147.64-27.8 147.64-19.6 145.59-19.6 141.34-14.85Z" opacity="1" transform="matrix(1,0,0,1,0,0)" fill="#1b2141" class="undefined-tk-1" data-fill-palette-color="secondary"></path></svg></g></svg></g></svg></g><g transform="matrix(1,0,0,1,0,74.7192628)"><svg viewBox="0 0 404.7977651394146 13.299" height="13.299" width="404.7977651394146"><g transform="matrix(1,0,0,1,0,0)"><svg width="404.7977651394146" viewBox="3.49 -35.01 1278.91 42.019999999999996" height="13.299" data-palette-color="#1b2141"><path d="M23.19-8.11L23.19-8.11Q23.19-6.32 22.52-4.76 21.85-3.2 20.68-2.03 19.51-0.85 17.94-0.18 16.38 0.49 14.6 0.49L14.6 0.49 12.11 0.49Q10.33 0.49 8.75-0.18 7.18-0.85 6.01-2.03 4.83-3.2 4.16-4.76 3.49-6.32 3.49-8.11L3.49-8.11 3.49-35.01 6.64-35.01 6.64-8.11Q6.64-6.93 7.08-5.92 7.52-4.91 8.29-4.14 9.06-3.37 10.07-2.93 11.08-2.49 12.26-2.49L12.26-2.49 14.45-2.49Q15.63-2.49 16.64-2.93 17.65-3.37 18.41-4.14 19.17-4.91 19.6-5.92 20.04-6.93 20.04-8.11L20.04-8.11 20.04-35.01 23.19-35.01 23.19-8.11ZM69.66-6.35L69.66-6.35Q69.66-4.83 69.05-3.58 68.44-2.32 67.39-1.42 66.34-0.51 64.96-0.01 63.58 0.49 62.07 0.49L62.07 0.49 60.07 0.49Q58.55 0.49 57.18-0.09 55.8-0.66 54.76-1.66 53.72-2.66 53.1-4 52.48-5.35 52.48-6.86L52.48-6.86 52.48-7.86 55.48-8.35 55.48-6.69Q55.48-5.79 55.86-4.99 56.24-4.2 56.87-3.61 57.51-3.03 58.34-2.69 59.17-2.34 60.07-2.34L60.07-2.34 62.07-2.34Q62.97-2.34 63.8-2.61 64.63-2.88 65.28-3.38 65.93-3.88 66.31-4.59 66.68-5.3 66.68-6.2L66.68-6.2Q66.68-7.54 66.1-8.4 65.51-9.25 64.55-9.83 63.58-10.4 62.35-10.78 61.12-11.16 59.82-11.54 58.53-11.91 57.3-12.4 56.06-12.89 55.1-13.68 54.14-14.48 53.55-15.67 52.96-16.87 52.96-18.65L52.96-18.65Q52.96-20.17 53.55-21.42 54.14-22.68 55.14-23.58 56.14-24.49 57.47-24.99 58.8-25.49 60.31-25.49L60.31-25.49 62.07-25.49Q63.58-25.49 64.93-24.91 66.27-24.34 67.27-23.34 68.27-22.34 68.85-21 69.42-19.65 69.42-18.14L69.42-18.14 69.42-18.04 66.42-17.55 66.42-18.31Q66.42-19.21 66.07-20.01 65.73-20.8 65.15-21.39 64.56-21.97 63.77-22.31 62.97-22.66 62.07-22.66L62.07-22.66 60.31-22.66Q59.41-22.66 58.62-22.39 57.82-22.12 57.24-21.62 56.65-21.12 56.31-20.41 55.97-19.7 55.97-18.8L55.97-18.8Q55.97-17.5 56.55-16.69 57.14-15.87 58.1-15.31 59.07-14.75 60.3-14.37 61.53-13.99 62.82-13.59 64.1-13.18 65.33-12.67 66.56-12.16 67.53-11.35 68.49-10.55 69.08-9.34 69.66-8.13 69.66-6.35ZM114.89-6.86L114.89-6.86Q114.89-5.35 114.31-4 113.74-2.66 112.74-1.66 111.74-0.66 110.4-0.09 109.05 0.49 107.54 0.49L107.54 0.49 105.54 0.49Q104.02 0.49 102.68-0.09 101.34-0.66 100.34-1.66 99.34-2.66 98.76-4 98.19-5.35 98.19-6.86L98.19-6.86 98.19-18.14Q98.19-19.65 98.76-21 99.34-22.34 100.34-23.34 101.34-24.34 102.68-24.91 104.02-25.49 105.54-25.49L105.54-25.49 107.54-25.49Q109.05-25.49 110.4-24.91 111.74-24.34 112.74-23.34 113.74-22.34 114.31-21 114.89-19.65 114.89-18.14L114.89-18.14 114.89-12.26 101.19-12.26 101.19-6.69Q101.19-5.79 101.53-4.99 101.88-4.2 102.46-3.61 103.05-3.03 103.84-2.69 104.63-2.34 105.54-2.34L105.54-2.34 107.54-2.34Q108.44-2.34 109.24-2.69 110.03-3.03 110.62-3.61 111.2-4.2 111.54-4.99 111.89-5.79 111.89-6.69L111.89-6.69 111.89-8.35 114.89-7.86 114.89-6.86ZM111.89-14.6L111.89-18.31Q111.89-19.21 111.54-20.01 111.2-20.8 110.62-21.39 110.03-21.97 109.24-22.31 108.44-22.66 107.54-22.66L107.54-22.66 105.54-22.66Q104.63-22.66 103.84-22.31 103.05-21.97 102.46-21.39 101.88-20.8 101.53-20.01 101.19-19.21 101.19-18.31L101.19-18.31 101.19-14.6 111.89-14.6ZM154.01-22.14L151.01-22.14Q150.1-22.14 149.31-21.8 148.52-21.46 147.93-20.87 147.34-20.29 147-19.49 146.66-18.7 146.66-17.8L146.66-17.8 146.66 0 143.66 0 143.66-25 144.66-25 146.29-22.46Q147.32-23.85 148.87-24.67 150.42-25.49 152.25-25.49L152.25-25.49 154.01-25.49 154.01-22.14ZM189.61-15.31L180.26-15.31 180.26-18.14 189.61-18.14 189.61-15.31ZM234.6-6.86L234.6-6.86Q234.6-5.35 234.02-4 233.45-2.66 232.45-1.66 231.45-0.66 230.1-0.09 228.76 0.49 227.25 0.49L227.25 0.49 225.24 0.49Q223.73 0.49 222.39-0.09 221.05-0.66 220.04-1.66 219.04-2.66 218.47-4 217.9-5.35 217.9-6.86L217.9-6.86 217.9-18.14Q217.9-19.65 218.47-21 219.04-22.34 220.04-23.34 221.05-24.34 222.39-24.91 223.73-25.49 225.24-25.49L225.24-25.49 227.25-25.49Q228.76-25.49 230.1-24.91 231.45-24.34 232.45-23.34 233.45-22.34 234.02-21 234.6-19.65 234.6-18.14L234.6-18.14 234.6-17.14 231.59-16.65 231.59-18.31Q231.59-19.21 231.25-20.01 230.91-20.8 230.32-21.39 229.74-21.97 228.94-22.31 228.15-22.66 227.25-22.66L227.25-22.66 225.24-22.66Q224.34-22.66 223.55-22.31 222.75-21.97 222.17-21.39 221.58-20.8 221.24-20.01 220.9-19.21 220.9-18.31L220.9-18.31 220.9-6.69Q220.9-5.79 221.24-4.99 221.58-4.2 222.17-3.61 222.75-3.03 223.55-2.69 224.34-2.34 225.24-2.34L225.24-2.34 227.25-2.34Q228.15-2.34 228.94-2.69 229.74-3.03 230.32-3.61 230.91-4.2 231.25-4.99 231.59-5.79 231.59-6.69L231.59-6.69 231.59-8.35 234.6-7.86 234.6-6.86ZM280.06-6.86L280.06-6.86Q280.06-5.35 279.49-4 278.92-2.66 277.92-1.66 276.91-0.66 275.57-0.09 274.23 0.49 272.72 0.49L272.72 0.49 270.71 0.49Q269.2 0.49 267.86-0.09 266.51-0.66 265.51-1.66 264.51-2.66 263.94-4 263.37-5.35 263.37-6.86L263.37-6.86 263.37-18.14Q263.37-19.65 263.94-21 264.51-22.34 265.51-23.34 266.51-24.34 267.86-24.91 269.2-25.49 270.71-25.49L270.71-25.49 272.72-25.49Q274.23-25.49 275.57-24.91 276.91-24.34 277.92-23.34 278.92-22.34 279.49-21 280.06-19.65 280.06-18.14L280.06-18.14 280.06-12.26 266.37-12.26 266.37-6.69Q266.37-5.79 266.71-4.99 267.05-4.2 267.64-3.61 268.22-3.03 269.02-2.69 269.81-2.34 270.71-2.34L270.71-2.34 272.72-2.34Q273.62-2.34 274.41-2.69 275.21-3.03 275.79-3.61 276.38-4.2 276.72-4.99 277.06-5.79 277.06-6.69L277.06-6.69 277.06-8.35 280.06-7.86 280.06-6.86ZM277.06-14.6L277.06-18.31Q277.06-19.21 276.72-20.01 276.38-20.8 275.79-21.39 275.21-21.97 274.41-22.31 273.62-22.66 272.72-22.66L272.72-22.66 270.71-22.66Q269.81-22.66 269.02-22.31 268.22-21.97 267.64-21.39 267.05-20.8 266.71-20.01 266.37-19.21 266.37-18.31L266.37-18.31 266.37-14.6 277.06-14.6ZM325.53 0L322.53 0 322.53-18.31Q322.53-19.21 322.19-20.01 321.85-20.8 321.26-21.39 320.67-21.97 319.88-22.31 319.09-22.66 318.18-22.66L318.18-22.66 316.18-22.66Q315.28-22.66 314.49-22.31 313.69-21.97 313.11-21.39 312.52-20.8 312.18-20.01 311.84-19.21 311.84-18.31L311.84-18.31 311.84 0 308.83 0 308.83-25 309.83-25 311.47-22.46Q312.5-23.85 314.05-24.67 315.6-25.49 317.43-25.49L317.43-25.49 318.18-25.49Q319.7-25.49 321.04-24.91 322.38-24.34 323.38-23.34 324.39-22.34 324.96-21 325.53-19.65 325.53-18.14L325.53-18.14 325.53 0ZM366.14 0L363.41 0Q362.04 0 360.83-0.51 359.63-1.03 358.73-1.93 357.84-2.83 357.32-4.03 356.79-5.22 356.79-6.59L356.79-6.59 356.79-22.14 352.3-22.14 352.3-25 356.79-25 356.79-31.01 359.8-31.49 359.8-25 366.14-25 366.14-22.14 359.8-22.14 359.8-6.45Q359.8-5.69 360.08-5.04 360.36-4.39 360.85-3.91 361.33-3.42 361.99-3.14 362.65-2.86 363.41-2.86L363.41-2.86 366.14-2.86 366.14 0ZM404.78-22.14L401.77-22.14Q400.87-22.14 400.08-21.8 399.28-21.46 398.7-20.87 398.11-20.29 397.77-19.49 397.43-18.7 397.43-17.8L397.43-17.8 397.43 0 394.43 0 394.43-25 395.43-25 397.06-22.46Q398.09-23.85 399.64-24.67 401.19-25.49 403.02-25.49L403.02-25.49 404.78-25.49 404.78-22.14ZM435.79-31.01L432.3-31.01 432.3-35.01 435.79-35.01 435.79-31.01ZM435.55 0L432.55 0 432.55-25 435.55-25 435.55 0ZM482.02-6.86L482.02-6.86Q482.02-5.35 481.44-4 480.87-2.66 479.87-1.66 478.87-0.66 477.53-0.09 476.18 0.49 474.67 0.49L474.67 0.49 472.67 0.49Q471.15 0.49 469.81-0.09 468.47-0.66 467.47-1.66 466.47-2.66 465.89-4 465.32-5.35 465.32-6.86L465.32-6.86 465.32-18.14Q465.32-19.65 465.89-21 466.47-22.34 467.47-23.34 468.47-24.34 469.81-24.91 471.15-25.49 472.67-25.49L472.67-25.49 474.67-25.49Q476.18-25.49 477.53-24.91 478.87-24.34 479.87-23.34 480.87-22.34 481.44-21 482.02-19.65 482.02-18.14L482.02-18.14 482.02-17.14 479.02-16.65 479.02-18.31Q479.02-19.21 478.67-20.01 478.33-20.8 477.75-21.39 477.16-21.97 476.37-22.31 475.57-22.66 474.67-22.66L474.67-22.66 472.67-22.66Q471.76-22.66 470.97-22.31 470.18-21.97 469.59-21.39 469.01-20.8 468.66-20.01 468.32-19.21 468.32-18.31L468.32-18.31 468.32-6.69Q468.32-5.79 468.66-4.99 469.01-4.2 469.59-3.61 470.18-3.03 470.97-2.69 471.76-2.34 472.67-2.34L472.67-2.34 474.67-2.34Q475.57-2.34 476.37-2.69 477.16-3.03 477.75-3.61 478.33-4.2 478.67-4.99 479.02-5.79 479.02-6.69L479.02-6.69 479.02-8.35 482.02-7.86 482.02-6.86ZM514.55-3.76L512.06 7.01 510.79 7.01 510.79-3.76 514.55-3.76ZM594.77-6.86L594.77-6.86Q594.77-5.35 594.19-4 593.62-2.66 592.62-1.66 591.62-0.66 590.28-0.09 588.93 0.49 587.42 0.49L587.42 0.49 585.42 0.49Q583.9 0.49 582.56-0.09 581.22-0.66 580.22-1.66 579.22-2.66 578.64-4 578.07-5.35 578.07-6.86L578.07-6.86 578.07-35.01 581.07-35.01 581.07-22.9Q582.1-24.12 583.54-24.8 584.98-25.49 586.66-25.49L586.66-25.49 587.42-25.49Q588.93-25.49 590.28-24.91 591.62-24.34 592.62-23.34 593.62-22.34 594.19-21 594.77-19.65 594.77-18.14L594.77-18.14 594.77-6.86ZM591.76-6.69L591.76-18.31Q591.76-19.21 591.42-20.01 591.08-20.8 590.49-21.39 589.91-21.97 589.12-22.31 588.32-22.66 587.42-22.66L587.42-22.66 585.42-22.66Q584.51-22.66 583.72-22.31 582.93-21.97 582.34-21.39 581.75-20.8 581.41-20.01 581.07-19.21 581.07-18.31L581.07-18.31 581.07-6.69Q581.07-5.79 581.41-4.99 581.75-4.2 582.34-3.61 582.93-3.03 583.72-2.69 584.51-2.34 585.42-2.34L585.42-2.34 587.42-2.34Q588.32-2.34 589.12-2.69 589.91-3.03 590.49-3.61 591.08-4.2 591.42-4.99 591.76-5.79 591.76-6.69L591.76-6.69ZM640.24 0L639.24 0 637.58-2.54Q636.55-1.15 635.01-0.33 633.47 0.49 631.64 0.49L631.64 0.49 630.89 0.49Q629.37 0.49 628.03-0.09 626.69-0.66 625.69-1.66 624.68-2.66 624.11-4 623.54-5.35 623.54-6.86L623.54-6.86 623.54-25 626.54-25 626.54-6.69Q626.54-5.79 626.88-4.99 627.22-4.2 627.81-3.61 628.4-3.03 629.19-2.69 629.98-2.34 630.89-2.34L630.89-2.34 632.89-2.34Q633.79-2.34 634.58-2.69 635.38-3.03 635.96-3.61 636.55-4.2 636.89-4.99 637.23-5.79 637.23-6.69L637.23-6.69 637.23-25 640.24-25 640.24 0ZM686.19-6.35L686.19-6.35Q686.19-4.83 685.58-3.58 684.97-2.32 683.92-1.42 682.87-0.51 681.49-0.01 680.11 0.49 678.6 0.49L678.6 0.49 676.6 0.49Q675.09 0.49 673.71-0.09 672.33-0.66 671.29-1.66 670.25-2.66 669.63-4 669.01-5.35 669.01-6.86L669.01-6.86 669.01-7.86 672.01-8.35 672.01-6.69Q672.01-5.79 672.39-4.99 672.77-4.2 673.4-3.61 674.04-3.03 674.87-2.69 675.7-2.34 676.6-2.34L676.6-2.34 678.6-2.34Q679.5-2.34 680.33-2.61 681.16-2.88 681.81-3.38 682.46-3.88 682.84-4.59 683.21-5.3 683.21-6.2L683.21-6.2Q683.21-7.54 682.63-8.4 682.04-9.25 681.08-9.83 680.11-10.4 678.88-10.78 677.65-11.16 676.35-11.54 675.06-11.91 673.83-12.4 672.59-12.89 671.63-13.68 670.67-14.48 670.08-15.67 669.49-16.87 669.49-18.65L669.49-18.65Q669.49-20.17 670.08-21.42 670.67-22.68 671.67-23.58 672.67-24.49 674-24.99 675.33-25.49 676.84-25.49L676.84-25.49 678.6-25.49Q680.11-25.49 681.46-24.91 682.8-24.34 683.8-23.34 684.8-22.34 685.38-21 685.95-19.65 685.95-18.14L685.95-18.14 685.95-18.04 682.95-17.55 682.95-18.31Q682.95-19.21 682.6-20.01 682.26-20.8 681.68-21.39 681.09-21.97 680.3-22.31 679.5-22.66 678.6-22.66L678.6-22.66 676.84-22.66Q675.94-22.66 675.15-22.39 674.35-22.12 673.77-21.62 673.18-21.12 672.84-20.41 672.5-19.7 672.5-18.8L672.5-18.8Q672.5-17.5 673.08-16.69 673.67-15.87 674.63-15.31 675.6-14.75 676.83-14.37 678.06-13.99 679.35-13.59 680.63-13.18 681.86-12.67 683.09-12.16 684.06-11.35 685.02-10.55 685.61-9.34 686.19-8.13 686.19-6.35ZM718.97-31.01L715.48-31.01 715.48-35.01 718.97-35.01 718.97-31.01ZM718.72 0L715.72 0 715.72-25 718.72-25 718.72 0ZM765.19 0L762.19 0 762.19-18.31Q762.19-19.21 761.85-20.01 761.51-20.8 760.92-21.39 760.33-21.97 759.54-22.31 758.75-22.66 757.84-22.66L757.84-22.66 755.84-22.66Q754.94-22.66 754.15-22.31 753.35-21.97 752.77-21.39 752.18-20.8 751.84-20.01 751.5-19.21 751.5-18.31L751.5-18.31 751.5 0 748.49 0 748.49-25 749.49-25 751.13-22.46Q752.16-23.85 753.71-24.67 755.26-25.49 757.09-25.49L757.09-25.49 757.84-25.49Q759.36-25.49 760.7-24.91 762.04-24.34 763.04-23.34 764.05-22.34 764.62-21 765.19-19.65 765.19-18.14L765.19-18.14 765.19 0ZM810.66-6.86L810.66-6.86Q810.66-5.35 810.09-4 809.51-2.66 808.51-1.66 807.51-0.66 806.17-0.09 804.83 0.49 803.31 0.49L803.31 0.49 801.31 0.49Q799.8 0.49 798.45-0.09 797.11-0.66 796.11-1.66 795.11-2.66 794.54-4 793.96-5.35 793.96-6.86L793.96-6.86 793.96-18.14Q793.96-19.65 794.54-21 795.11-22.34 796.11-23.34 797.11-24.34 798.45-24.91 799.8-25.49 801.31-25.49L801.31-25.49 803.31-25.49Q804.83-25.49 806.17-24.91 807.51-24.34 808.51-23.34 809.51-22.34 810.09-21 810.66-19.65 810.66-18.14L810.66-18.14 810.66-12.26 796.97-12.26 796.97-6.69Q796.97-5.79 797.31-4.99 797.65-4.2 798.23-3.61 798.82-3.03 799.61-2.69 800.41-2.34 801.31-2.34L801.31-2.34 803.31-2.34Q804.22-2.34 805.01-2.69 805.8-3.03 806.39-3.61 806.98-4.2 807.32-4.99 807.66-5.79 807.66-6.69L807.66-6.69 807.66-8.35 810.66-7.86 810.66-6.86ZM807.66-14.6L807.66-18.31Q807.66-19.21 807.32-20.01 806.98-20.8 806.39-21.39 805.8-21.97 805.01-22.31 804.22-22.66 803.31-22.66L803.31-22.66 801.31-22.66Q800.41-22.66 799.61-22.31 798.82-21.97 798.23-21.39 797.65-20.8 797.31-20.01 796.97-19.21 796.97-18.31L796.97-18.31 796.97-14.6 807.66-14.6ZM856.62-6.35L856.62-6.35Q856.62-4.83 856.01-3.58 855.4-2.32 854.35-1.42 853.3-0.51 851.92-0.01 850.54 0.49 849.03 0.49L849.03 0.49 847.02 0.49Q845.51 0.49 844.13-0.09 842.75-0.66 841.71-1.66 840.68-2.66 840.05-4 839.43-5.35 839.43-6.86L839.43-6.86 839.43-7.86 842.43-8.35 842.43-6.69Q842.43-5.79 842.81-4.99 843.19-4.2 843.83-3.61 844.46-3.03 845.29-2.69 846.12-2.34 847.02-2.34L847.02-2.34 849.03-2.34Q849.93-2.34 850.76-2.61 851.59-2.88 852.24-3.38 852.88-3.88 853.26-4.59 853.64-5.3 853.64-6.2L853.64-6.2Q853.64-7.54 853.05-8.4 852.47-9.25 851.5-9.83 850.54-10.4 849.31-10.78 848.07-11.16 846.78-11.54 845.49-11.91 844.25-12.4 843.02-12.89 842.06-13.68 841.09-14.48 840.51-15.67 839.92-16.87 839.92-18.65L839.92-18.65Q839.92-20.17 840.51-21.42 841.09-22.68 842.09-23.58 843.09-24.49 844.42-24.99 845.75-25.49 847.27-25.49L847.27-25.49 849.03-25.49Q850.54-25.49 851.88-24.91 853.23-24.34 854.23-23.34 855.23-22.34 855.8-21 856.37-19.65 856.37-18.14L856.37-18.14 856.37-18.04 853.37-17.55 853.37-18.31Q853.37-19.21 853.03-20.01 852.69-20.8 852.1-21.39 851.52-21.97 850.72-22.31 849.93-22.66 849.03-22.66L849.03-22.66 847.27-22.66Q846.36-22.66 845.57-22.39 844.78-22.12 844.19-21.62 843.61-21.12 843.26-20.41 842.92-19.7 842.92-18.8L842.92-18.8Q842.92-17.5 843.51-16.69 844.09-15.87 845.06-15.31 846.02-14.75 847.26-14.37 848.49-13.99 849.77-13.59 851.05-13.18 852.29-12.67 853.52-12.16 854.48-11.35 855.45-10.55 856.03-9.34 856.62-8.13 856.62-6.35ZM902.33-6.35L902.33-6.35Q902.33-4.83 901.72-3.58 901.11-2.32 900.06-1.42 899.01-0.51 897.63-0.01 896.25 0.49 894.74 0.49L894.74 0.49 892.74 0.49Q891.22 0.49 889.84-0.09 888.46-0.66 887.43-1.66 886.39-2.66 885.77-4 885.14-5.35 885.14-6.86L885.14-6.86 885.14-7.86 888.15-8.35 888.15-6.69Q888.15-5.79 888.53-4.99 888.9-4.2 889.54-3.61 890.17-3.03 891-2.69 891.83-2.34 892.74-2.34L892.74-2.34 894.74-2.34Q895.64-2.34 896.47-2.61 897.3-2.88 897.95-3.38 898.6-3.88 898.97-4.59 899.35-5.3 899.35-6.2L899.35-6.2Q899.35-7.54 898.77-8.4 898.18-9.25 897.22-9.83 896.25-10.4 895.02-10.78 893.79-11.16 892.49-11.54 891.2-11.91 889.97-12.4 888.73-12.89 887.77-13.68 886.8-14.48 886.22-15.67 885.63-16.87 885.63-18.65L885.63-18.65Q885.63-20.17 886.22-21.42 886.8-22.68 887.81-23.58 888.81-24.49 890.14-24.99 891.47-25.49 892.98-25.49L892.98-25.49 894.74-25.49Q896.25-25.49 897.6-24.91 898.94-24.34 899.94-23.34 900.94-22.34 901.51-21 902.09-19.65 902.09-18.14L902.09-18.14 902.09-18.04 899.08-17.55 899.08-18.31Q899.08-19.21 898.74-20.01 898.4-20.8 897.82-21.39 897.23-21.97 896.44-22.31 895.64-22.66 894.74-22.66L894.74-22.66 892.98-22.66Q892.08-22.66 891.28-22.39 890.49-22.12 889.91-21.62 889.32-21.12 888.98-20.41 888.64-19.7 888.64-18.8L888.64-18.8Q888.64-17.5 889.22-16.69 889.81-15.87 890.77-15.31 891.74-14.75 892.97-14.37 894.2-13.99 895.48-13.59 896.77-13.18 898-12.67 899.23-12.16 900.2-11.35 901.16-10.55 901.75-9.34 902.33-8.13 902.33-6.35ZM939.7-15.31L930.34-15.31 930.34-18.14 939.7-18.14 939.7-15.31ZM979.33-32.15L976.57-32.15Q975.81-32.15 975.17-31.87 974.52-31.59 974.03-31.1 973.54-30.62 973.26-29.96 972.98-29.3 972.98-28.54L972.98-28.54 972.98-25 978.82-25 978.82-22.14 972.98-22.14 972.98 0 969.98 0 969.98-22.14 965.46-22.14 965.46-25 969.98-25 969.98-28.39Q969.98-29.76 970.49-30.97 971-32.18 971.91-33.08 972.81-33.98 974.01-34.5 975.2-35.01 976.57-35.01L976.57-35.01 979.33-35.01 979.33-32.15ZM1021.8-6.86L1021.8-6.86Q1021.8-5.35 1021.22-4 1020.65-2.66 1019.65-1.66 1018.65-0.66 1017.3-0.09 1015.96 0.49 1014.45 0.49L1014.45 0.49 1012.44 0.49Q1010.93 0.49 1009.59-0.09 1008.25-0.66 1007.24-1.66 1006.24-2.66 1005.67-4 1005.1-5.35 1005.1-6.86L1005.1-6.86 1005.1-18.14Q1005.1-19.65 1005.67-21 1006.24-22.34 1007.24-23.34 1008.25-24.34 1009.59-24.91 1010.93-25.49 1012.44-25.49L1012.44-25.49 1014.45-25.49Q1015.96-25.49 1017.3-24.91 1018.65-24.34 1019.65-23.34 1020.65-22.34 1021.22-21 1021.8-19.65 1021.8-18.14L1021.8-18.14 1021.8-6.86ZM1018.79-6.69L1018.79-18.31Q1018.79-19.21 1018.45-20.01 1018.11-20.8 1017.52-21.39 1016.94-21.97 1016.14-22.31 1015.35-22.66 1014.45-22.66L1014.45-22.66 1012.44-22.66Q1011.54-22.66 1010.75-22.31 1009.95-21.97 1009.37-21.39 1008.78-20.8 1008.44-20.01 1008.1-19.21 1008.1-18.31L1008.1-18.31 1008.1-6.69Q1008.1-5.79 1008.44-4.99 1008.78-4.2 1009.37-3.61 1009.95-3.03 1010.75-2.69 1011.54-2.34 1012.44-2.34L1012.44-2.34 1014.45-2.34Q1015.35-2.34 1016.14-2.69 1016.94-3.03 1017.52-3.61 1018.11-4.2 1018.45-4.99 1018.79-5.79 1018.79-6.69L1018.79-6.69ZM1067.26-6.86L1067.26-6.86Q1067.26-5.35 1066.69-4 1066.12-2.66 1065.12-1.66 1064.11-0.66 1062.77-0.09 1061.43 0.49 1059.92 0.49L1059.92 0.49 1057.91 0.49Q1056.4 0.49 1055.06-0.09 1053.71-0.66 1052.71-1.66 1051.71-2.66 1051.14-4 1050.56-5.35 1050.56-6.86L1050.56-6.86 1050.56-18.14Q1050.56-19.65 1051.14-21 1051.71-22.34 1052.71-23.34 1053.71-24.34 1055.06-24.91 1056.4-25.49 1057.91-25.49L1057.91-25.49 1059.92-25.49Q1061.43-25.49 1062.77-24.91 1064.11-24.34 1065.12-23.34 1066.12-22.34 1066.69-21 1067.26-19.65 1067.26-18.14L1067.26-18.14 1067.26-17.14 1064.26-16.65 1064.26-18.31Q1064.26-19.21 1063.92-20.01 1063.58-20.8 1062.99-21.39 1062.41-21.97 1061.61-22.31 1060.82-22.66 1059.92-22.66L1059.92-22.66 1057.91-22.66Q1057.01-22.66 1056.22-22.31 1055.42-21.97 1054.84-21.39 1054.25-20.8 1053.91-20.01 1053.57-19.21 1053.57-18.31L1053.57-18.31 1053.57-6.69Q1053.57-5.79 1053.91-4.99 1054.25-4.2 1054.84-3.61 1055.42-3.03 1056.22-2.69 1057.01-2.34 1057.91-2.34L1057.91-2.34 1059.92-2.34Q1060.82-2.34 1061.61-2.69 1062.41-3.03 1062.99-3.61 1063.58-4.2 1063.92-4.99 1064.26-5.79 1064.26-6.69L1064.26-6.69 1064.26-8.35 1067.26-7.86 1067.26-6.86ZM1112.73 0L1111.73 0 1110.07-2.54Q1109.05-1.15 1107.51-0.33 1105.97 0.49 1104.14 0.49L1104.14 0.49 1103.38 0.49Q1101.87 0.49 1100.53-0.09 1099.18-0.66 1098.18-1.66 1097.18-2.66 1096.61-4 1096.03-5.35 1096.03-6.86L1096.03-6.86 1096.03-25 1099.04-25 1099.04-6.69Q1099.04-5.79 1099.38-4.99 1099.72-4.2 1100.31-3.61 1100.89-3.03 1101.69-2.69 1102.48-2.34 1103.38-2.34L1103.38-2.34 1105.38-2.34Q1106.29-2.34 1107.08-2.69 1107.87-3.03 1108.46-3.61 1109.05-4.2 1109.39-4.99 1109.73-5.79 1109.73-6.69L1109.73-6.69 1109.73-25 1112.73-25 1112.73 0ZM1158.69-6.35L1158.69-6.35Q1158.69-4.83 1158.08-3.58 1157.47-2.32 1156.42-1.42 1155.37-0.51 1153.99-0.01 1152.61 0.49 1151.1 0.49L1151.1 0.49 1149.1 0.49Q1147.58 0.49 1146.2-0.09 1144.82-0.66 1143.79-1.66 1142.75-2.66 1142.13-4 1141.5-5.35 1141.5-6.86L1141.5-6.86 1141.5-7.86 1144.51-8.35 1144.51-6.69Q1144.51-5.79 1144.88-4.99 1145.26-4.2 1145.9-3.61 1146.53-3.03 1147.36-2.69 1148.19-2.34 1149.1-2.34L1149.1-2.34 1151.1-2.34Q1152-2.34 1152.83-2.61 1153.66-2.88 1154.31-3.38 1154.95-3.88 1155.33-4.59 1155.71-5.3 1155.71-6.2L1155.71-6.2Q1155.71-7.54 1155.13-8.4 1154.54-9.25 1153.58-9.83 1152.61-10.4 1151.38-10.78 1150.15-11.16 1148.85-11.54 1147.56-11.91 1146.32-12.4 1145.09-12.89 1144.13-13.68 1143.16-14.48 1142.58-15.67 1141.99-16.87 1141.99-18.65L1141.99-18.65Q1141.99-20.17 1142.58-21.42 1143.16-22.68 1144.16-23.58 1145.16-24.49 1146.5-24.99 1147.83-25.49 1149.34-25.49L1149.34-25.49 1151.1-25.49Q1152.61-25.49 1153.95-24.91 1155.3-24.34 1156.3-23.34 1157.3-22.34 1157.87-21 1158.45-19.65 1158.45-18.14L1158.45-18.14 1158.45-18.04 1155.44-17.55 1155.44-18.31Q1155.44-19.21 1155.1-20.01 1154.76-20.8 1154.17-21.39 1153.59-21.97 1152.79-22.31 1152-22.66 1151.1-22.66L1151.1-22.66 1149.34-22.66Q1148.44-22.66 1147.64-22.39 1146.85-22.12 1146.26-21.62 1145.68-21.12 1145.34-20.41 1144.99-19.7 1144.99-18.8L1144.99-18.8Q1144.99-17.5 1145.58-16.69 1146.17-15.87 1147.13-15.31 1148.09-14.75 1149.33-14.37 1150.56-13.99 1151.84-13.59 1153.12-13.18 1154.36-12.67 1155.59-12.16 1156.55-11.35 1157.52-10.55 1158.1-9.34 1158.69-8.13 1158.69-6.35ZM1203.91-6.86L1203.91-6.86Q1203.91-5.35 1203.34-4 1202.77-2.66 1201.77-1.66 1200.77-0.66 1199.42-0.09 1198.08 0.49 1196.57 0.49L1196.57 0.49 1194.56 0.49Q1193.05 0.49 1191.71-0.09 1190.36-0.66 1189.36-1.66 1188.36-2.66 1187.79-4 1187.22-5.35 1187.22-6.86L1187.22-6.86 1187.22-18.14Q1187.22-19.65 1187.79-21 1188.36-22.34 1189.36-23.34 1190.36-24.34 1191.71-24.91 1193.05-25.49 1194.56-25.49L1194.56-25.49 1196.57-25.49Q1198.08-25.49 1199.42-24.91 1200.77-24.34 1201.77-23.34 1202.77-22.34 1203.34-21 1203.91-19.65 1203.91-18.14L1203.91-18.14 1203.91-12.26 1190.22-12.26 1190.22-6.69Q1190.22-5.79 1190.56-4.99 1190.9-4.2 1191.49-3.61 1192.07-3.03 1192.87-2.69 1193.66-2.34 1194.56-2.34L1194.56-2.34 1196.57-2.34Q1197.47-2.34 1198.26-2.69 1199.06-3.03 1199.64-3.61 1200.23-4.2 1200.57-4.99 1200.91-5.79 1200.91-6.69L1200.91-6.69 1200.91-8.35 1203.91-7.86 1203.91-6.86ZM1200.91-14.6L1200.91-18.31Q1200.91-19.21 1200.57-20.01 1200.23-20.8 1199.64-21.39 1199.06-21.97 1198.26-22.31 1197.47-22.66 1196.57-22.66L1196.57-22.66 1194.56-22.66Q1193.66-22.66 1192.87-22.31 1192.07-21.97 1191.49-21.39 1190.9-20.8 1190.56-20.01 1190.22-19.21 1190.22-18.31L1190.22-18.31 1190.22-14.6 1200.91-14.6ZM1249.38 0L1248.38 0 1246.72-2.54Q1245.7-1.15 1244.16-0.33 1242.62 0.49 1240.79 0.49L1240.79 0.49 1240.03 0.49Q1238.52 0.49 1237.18-0.09 1235.83-0.66 1234.83-1.66 1233.83-2.66 1233.26-4 1232.68-5.35 1232.68-6.86L1232.68-6.86 1232.68-18.14Q1232.68-19.65 1233.26-21 1233.83-22.34 1234.83-23.34 1235.83-24.34 1237.18-24.91 1238.52-25.49 1240.03-25.49L1240.03-25.49 1240.79-25.49Q1242.47-25.49 1243.91-24.8 1245.36-24.12 1246.38-22.9L1246.38-22.9 1246.38-35.01 1249.38-35.01 1249.38 0ZM1246.38-6.69L1246.38-18.31Q1246.38-19.21 1246.04-20.01 1245.7-20.8 1245.11-21.39 1244.53-21.97 1243.73-22.31 1242.94-22.66 1242.04-22.66L1242.04-22.66 1240.03-22.66Q1239.13-22.66 1238.34-22.31 1237.54-21.97 1236.96-21.39 1236.37-20.8 1236.03-20.01 1235.69-19.21 1235.69-18.31L1235.69-18.31 1235.69-6.69Q1235.69-5.79 1236.03-4.99 1236.37-4.2 1236.96-3.61 1237.54-3.03 1238.34-2.69 1239.13-2.34 1240.03-2.34L1240.03-2.34 1242.04-2.34Q1242.94-2.34 1243.73-2.69 1244.53-3.03 1245.11-3.61 1245.7-4.2 1246.04-4.99 1246.38-5.79 1246.38-6.69L1246.38-6.69ZM1282.4 0L1278.64 0 1278.64-3.76 1282.4-3.76 1282.4 0Z" opacity="1" transform="matrix(1,0,0,1,0,0)" fill="#1b2141" class="slogan-text-1" data-fill-palette-color="secondary" id="text-1"></path></svg></g></svg></g></svg></g></svg></g><g></g></svg></g><defs></defs></svg><rect width="395.5199999999999" height="86.0009276253445" fill="none" stroke="none" visibility="hidden"></rect></g></svg></g></svg>