<svg xmlns="http://www.w3.org/2000/svg" version="1.1" xmlns:xlink="http://www.w3.org/1999/xlink" xmlns:svgjs="http://svgjs.dev/svgjs" width="1500" height="1500" viewBox="0 0 1500 1500"><rect width="1500" height="1500" fill="#f2f2f2"></rect><g transform="matrix(0.6666666666666666,0,0,0.6666666666666666,249.4325305662121,229.66021505376358)"><svg viewBox="0 0 239 248" data-background-color="#f2f2f2" preserveAspectRatio="xMidYMid meet" height="1556" width="1500" xmlns="http://www.w3.org/2000/svg" xmlns:xlink="http://www.w3.org/1999/xlink"><g id="tight-bounds" transform="matrix(1,0,0,1,0.1356251946752991,0.4000000000000057)"><svg viewBox="0 0 238.7287496106494 247.2" height="247.2" width="238.7287496106494"><g><svg viewBox="0 0 261.38535491573606 270.66057121545606" height="247.2" width="238.7287496106494"><g><svg viewBox="0 0 261.38535491573606 270.66057121545606" height="270.66057121545606" width="261.38535491573606"><g id="textblocktransform"><svg viewBox="0 0 261.38535491573606 270.66057121545606" height="270.66057121545606" width="261.38535491573606" id="textblock"><g><svg viewBox="0 0 261.38535491573606 245.672304" height="245.672304" width="261.38535491573606"><g transform="matrix(1,0,0,1,0,0)"><svg width="261.38535491573606" viewBox="3.5 -37.95 209.59999999999997 190.95000000000005" height="245.672304" data-palette-color="#333333"><svg></svg><svg></svg><svg></svg><svg></svg><g class="wordmark-text-0" data-fill-palette-color="primary" id="text-0"><path d="M14.45 0.75v0c-2.433 0-4.633-0.3-6.6-0.9-1.967-0.6-3.417-1.183-4.35-1.75v0l0.75-7.55 3.25 0.3v2.3c0 0.167 0.027 0.44 0.08 0.82 0.047 0.387 0.103 0.803 0.17 1.25 0.067 0.453 0.143 0.87 0.23 1.25 0.08 0.387 0.153 0.68 0.22 0.88v0l-0.9-1.15c0.867 0.433 1.943 0.823 3.23 1.17 1.28 0.353 2.637 0.53 4.07 0.53v0c2.067 0 3.7-0.56 4.9-1.68 1.2-1.113 1.8-2.687 1.8-4.72v0c0-1.4-0.417-2.577-1.25-3.53-0.833-0.947-1.9-1.797-3.2-2.55-1.3-0.747-2.673-1.47-4.12-2.17-1.453-0.7-2.83-1.493-4.13-2.38-1.3-0.88-2.367-1.937-3.2-3.17-0.833-1.233-1.25-2.733-1.25-4.5v0c0-2 0.477-3.683 1.43-5.05 0.947-1.367 2.237-2.4 3.87-3.1 1.633-0.7 3.467-1.05 5.5-1.05v0c1.633 0 3.317 0.167 5.05 0.5 1.733 0.333 3.4 0.7 5 1.1v0l-0.7 7.4-2.9-0.35v-2.1c0-0.233-0.05-0.593-0.15-1.08-0.1-0.48-0.217-0.997-0.35-1.55-0.133-0.547-0.267-1.037-0.4-1.47v0l1.4 1.85c-1.433-0.767-2.65-1.243-3.65-1.43-1-0.18-2.183-0.27-3.55-0.27v0c-1.533 0-2.873 0.473-4.02 1.42-1.153 0.953-1.73 2.363-1.73 4.23v0c0 1.333 0.417 2.457 1.25 3.37 0.833 0.92 1.917 1.753 3.25 2.5 1.333 0.753 2.733 1.497 4.2 2.23 1.467 0.733 2.867 1.567 4.2 2.5 1.333 0.933 2.417 2.05 3.25 3.35 0.833 1.3 1.25 2.9 1.25 4.8v0c0 2.2-0.533 4.017-1.6 5.45-1.067 1.433-2.5 2.507-4.3 3.22-1.8 0.72-3.8 1.08-6 1.08zM43.5 0.5v0c-2.533 0-4.65-0.55-6.35-1.65-1.7-1.1-2.973-2.61-3.82-4.53-0.853-1.913-1.28-4.12-1.28-6.62v0c0-2.533 0.427-4.76 1.28-6.68 0.847-1.913 2.12-3.42 3.82-4.52 1.7-1.1 3.817-1.65 6.35-1.65v0c3.8 0 6.643 1.173 8.53 3.52 1.88 2.353 2.82 5.463 2.82 9.33v0c0 2.5-0.423 4.717-1.27 6.65-0.853 1.933-2.12 3.44-3.8 4.52-1.687 1.087-3.78 1.63-6.28 1.63zM43.5-2.2v0c1.8 0 3.217-0.5 4.25-1.5 1.033-1 1.76-2.277 2.18-3.83 0.413-1.547 0.62-3.137 0.62-4.77v0c0-1.667-0.207-3.277-0.62-4.83-0.42-1.547-1.147-2.82-2.18-3.82-1.033-1-2.45-1.5-4.25-1.5v0c-1.8 0-3.217 0.49-4.25 1.47-1.033 0.987-1.773 2.253-2.22 3.8-0.453 1.553-0.68 3.18-0.68 4.88v0c0 1.667 0.227 3.273 0.68 4.82 0.447 1.553 1.187 2.82 2.22 3.8 1.033 0.987 2.45 1.48 4.25 1.48zM58.55 0.25v0l-0.25-2.4 5.6-1.15-2 1.85c0.067-0.267 0.157-0.733 0.27-1.4 0.12-0.667 0.237-1.377 0.35-2.13 0.12-0.747 0.18-1.32 0.18-1.72v0-24.2c0-0.433-0.04-0.993-0.12-1.68-0.087-0.68-0.19-1.387-0.31-2.12-0.113-0.733-0.22-1.35-0.32-1.85v0l1.95 2.3-5.5-1.2 0.25-2.5 4.45 0.15h2.75l0.95 0.9c-0.033 0.5-0.077 1.19-0.13 2.07-0.047 0.887-0.087 1.813-0.12 2.78-0.033 0.967-0.05 1.85-0.05 2.65v0 21.2c0 1.333 0.05 2.677 0.15 4.03 0.1 1.347 0.2 2.32 0.3 2.92v0l-1.85-1.85 5.65 0.5-0.35 2.6h-6.35c-0.333 0-0.817 0.017-1.45 0.05-0.633 0.033-1.307 0.067-2.02 0.1-0.72 0.033-1.397 0.067-2.03 0.1zM73.85 0.25v0l-0.25-2.4 5.6-1.15-2 1.85c0.067-0.267 0.157-0.733 0.27-1.4 0.12-0.667 0.237-1.377 0.35-2.13 0.12-0.747 0.18-1.32 0.18-1.72v0-11.1c0-0.433-0.04-0.993-0.12-1.68-0.087-0.68-0.19-1.387-0.31-2.12-0.113-0.733-0.22-1.35-0.32-1.85v0l1.95 2.3-5.5-0.95 0.25-2.6h7.2l0.95 0.9c-0.033 0.5-0.077 1.19-0.13 2.07-0.047 0.887-0.087 1.813-0.12 2.78-0.033 0.967-0.05 1.85-0.05 2.65v0 8.1c0 1.3 0.05 2.633 0.15 4 0.1 1.367 0.2 2.35 0.3 2.95v0l-1.85-1.85 5.65 0.5-0.35 2.6h-6.35c-0.333 0-0.817 0.017-1.45 0.05-0.633 0.033-1.307 0.067-2.02 0.1-0.72 0.033-1.397 0.067-2.03 0.1zM79.15-29.6v0c-0.933 0-1.65-0.283-2.15-0.85-0.5-0.567-0.75-1.317-0.75-2.25v0c0-0.967 0.25-1.74 0.75-2.32 0.5-0.587 1.217-0.88 2.15-0.88v0c0.933 0 1.65 0.273 2.15 0.82 0.5 0.553 0.75 1.347 0.75 2.38v0c0 0.933-0.243 1.683-0.73 2.25-0.48 0.567-1.203 0.85-2.17 0.85zM99.65 0.5v0c-3.1 0-5.56-1.15-7.38-3.45-1.813-2.3-2.72-5.45-2.72-9.45v0c0-3.9 0.923-6.993 2.77-9.28 1.853-2.28 4.347-3.42 7.48-3.42v0c0.833 0 1.6 0.04 2.3 0.12 0.7 0.087 1.467 0.253 2.3 0.5 0.833 0.253 1.833 0.63 3 1.13v0l-0.35 3.6c-1.167-0.933-2.293-1.593-3.38-1.98-1.08-0.38-2.203-0.57-3.37-0.57v0c-2.033 0-3.643 0.89-4.83 2.67-1.18 1.787-1.77 4.247-1.77 7.38v0c0 3.033 0.55 5.433 1.65 7.2 1.1 1.767 2.567 2.65 4.4 2.65v0c2.067 0 3.683-0.683 4.85-2.05 1.167-1.367 1.75-3.267 1.75-5.7v0-20.8c0-0.433-0.05-1-0.15-1.7-0.1-0.7-0.217-1.377-0.35-2.03-0.133-0.647-0.233-1.103-0.3-1.37v0l1.9 1.65-6.1-1.05 0.25-2.5 5.1 0.15h2.8l0.9 0.9c-0.033 0.7-0.077 1.517-0.13 2.45-0.047 0.933-0.087 1.85-0.12 2.75-0.033 0.9-0.05 1.65-0.05 2.25v0 21.3c0 1.3 0.1 2.617 0.3 3.95 0.2 1.333 0.367 2.283 0.5 2.85v0l-1.95-1.8 5.15 0.55-0.3 2.6h-6.25l-1-5.65 0.35 0.85c0.033 0.567-0.183 1.157-0.65 1.77-0.467 0.62-1.083 1.197-1.85 1.73-0.767 0.533-1.567 0.967-2.4 1.3-0.833 0.333-1.617 0.5-2.35 0.5z" fill="#333333" fill-rule="nonzero" stroke="none" stroke-width="1" stroke-linecap="butt" stroke-linejoin="miter" stroke-miterlimit="10" stroke-dasharray="" stroke-dashoffset="0" font-family="none" font-weight="none" font-size="none" text-anchor="none" style="mix-blend-mode: normal" data-fill-palette-color="primary" opacity="1"></path><path d="M14.45 50v0c-2.433 0-4.633-0.3-6.6-0.9-1.967-0.6-3.417-1.183-4.35-1.75v0l0.75-7.55 3.25 0.3v2.3c0 0.167 0.027 0.44 0.08 0.82 0.047 0.387 0.103 0.803 0.17 1.25 0.067 0.453 0.143 0.87 0.23 1.25 0.08 0.387 0.153 0.68 0.22 0.88v0l-0.9-1.15c0.867 0.433 1.943 0.823 3.23 1.17 1.28 0.353 2.637 0.53 4.07 0.53v0c2.067 0 3.7-0.56 4.9-1.68 1.2-1.113 1.8-2.687 1.8-4.72v0c0-1.4-0.417-2.577-1.25-3.53-0.833-0.947-1.9-1.797-3.2-2.55-1.3-0.747-2.673-1.47-4.12-2.17-1.453-0.7-2.83-1.493-4.13-2.38-1.3-0.88-2.367-1.937-3.2-3.17-0.833-1.233-1.25-2.733-1.25-4.5v0c0-2 0.477-3.683 1.43-5.05 0.947-1.367 2.237-2.4 3.87-3.1 1.633-0.7 3.467-1.05 5.5-1.05v0c1.633 0 3.317 0.167 5.05 0.5 1.733 0.333 3.4 0.7 5 1.1v0l-0.7 7.4-2.9-0.35v-2.1c0-0.233-0.05-0.593-0.15-1.08-0.1-0.48-0.217-0.997-0.35-1.55-0.133-0.547-0.267-1.037-0.4-1.47v0l1.4 1.85c-1.433-0.767-2.65-1.243-3.65-1.43-1-0.18-2.183-0.27-3.55-0.27v0c-1.533 0-2.873 0.473-4.02 1.42-1.153 0.953-1.73 2.363-1.73 4.23v0c0 1.333 0.417 2.457 1.25 3.37 0.833 0.92 1.917 1.753 3.25 2.5 1.333 0.753 2.733 1.497 4.2 2.23 1.467 0.733 2.867 1.567 4.2 2.5 1.333 0.933 2.417 2.05 3.25 3.35 0.833 1.3 1.25 2.9 1.25 4.8v0c0 2.2-0.533 4.017-1.6 5.45-1.067 1.433-2.5 2.507-4.3 3.22-1.8 0.72-3.8 1.08-6 1.08zM40.75 50v0c-2.233 0-3.723-0.6-4.47-1.8-0.753-1.2-1.13-2.917-1.13-5.15v0-17.55l1.6 1.65h-5.8l-0.15-2c0.433-0.167 0.967-0.36 1.6-0.58 0.633-0.213 1.277-0.437 1.93-0.67 0.647-0.233 1.17-0.417 1.57-0.55v0l-1.7 1.65c0.167-0.2 0.393-0.56 0.68-1.08 0.28-0.513 0.57-1.097 0.87-1.75 0.3-0.647 0.583-1.237 0.85-1.77 0.267-0.533 0.45-0.917 0.55-1.15v0l1.8 0.2v23.8c0 1.133 0.2 2.017 0.6 2.65 0.4 0.633 1.167 0.95 2.3 0.95v0c0.733 0 1.493-0.177 2.28-0.53 0.78-0.347 1.487-0.803 2.12-1.37v0l1.35 2.15c-1.2 0.967-2.373 1.693-3.52 2.18-1.153 0.48-2.263 0.72-3.33 0.72zM46.1 27.15h-8v-2.6h8.25zM58.45 49.75v0c-2.233 0-4-0.577-5.3-1.73-1.3-1.147-1.95-2.687-1.95-4.62v0c0-1.733 0.56-3.177 1.68-4.33 1.113-1.147 2.787-1.903 5.02-2.27v0l8.75-1.45v2.45l-8.15 1.55c-1 0.167-1.783 0.55-2.35 1.15-0.567 0.6-0.85 1.333-0.85 2.2v0c0 1.267 0.323 2.257 0.97 2.97 0.653 0.72 1.58 1.08 2.78 1.08v0c1.767 0 3.307-0.567 4.62-1.7 1.32-1.133 2.097-2.533 2.33-4.2v0-7.05c0-2.4-0.4-4.193-1.2-5.38-0.8-1.18-2-1.77-3.6-1.77v0c-0.7 0-1.45 0.067-2.25 0.2-0.8 0.133-1.55 0.317-2.25 0.55-0.7 0.233-1.233 0.483-1.6 0.75v0l1.55-2.15-0.6 3.75 0.05 2.05-2.9 0.15-0.5-6.65c1-0.267 2-0.483 3-0.65 1-0.167 2-0.293 3-0.38 1-0.08 2-0.12 3-0.12v0c2.967 0 5.05 0.807 6.25 2.42 1.2 1.62 1.8 4.397 1.8 8.33v0 6.15c0 1.5 0.093 2.807 0.28 3.92 0.18 1.12 0.337 1.997 0.47 2.63v0l-1.65-1.5 4.9 0.55-0.3 2.6h-6.25l-1-5.65 0.9-0.15c-0.067 0.933-0.507 1.89-1.32 2.87-0.82 0.987-1.87 1.803-3.15 2.45-1.287 0.653-2.68 0.98-4.18 0.98zM88.55 49.75v0c-2.533 0-4.643-0.543-6.33-1.63-1.68-1.08-2.937-2.587-3.77-4.52-0.833-1.933-1.25-4.15-1.25-6.65v0c0-2.533 0.423-4.76 1.27-6.68 0.853-1.913 2.13-3.413 3.83-4.5 1.7-1.08 3.817-1.62 6.35-1.62v0c1.467 0 2.75 0.167 3.85 0.5 1.1 0.333 2.4 0.767 3.9 1.3v0l-0.5 5.95-2.75-0.15v-1.7c0-0.267-0.09-0.71-0.27-1.33-0.187-0.613-0.363-1.187-0.53-1.72v0l1.55 1.6c-0.9-0.467-1.793-0.877-2.68-1.23-0.88-0.347-1.753-0.52-2.62-0.52v0c-1.7 0-3.06 0.507-4.08 1.52-1.013 1.02-1.753 2.297-2.22 3.83-0.467 1.533-0.7 3.117-0.7 4.75v0c0 1.633 0.223 3.19 0.67 4.67 0.453 1.487 1.18 2.697 2.18 3.63 1 0.933 2.35 1.4 4.05 1.4v0c1.233 0 2.423-0.167 3.57-0.5 1.153-0.333 2.33-0.783 3.53-1.35v0l1.35 2.3c-1.4 0.933-2.783 1.607-4.15 2.02-1.367 0.42-2.783 0.63-4.25 0.63zM100.2 49.5v0l-0.25-2.4 5.6-1.15-2 1.85c0.067-0.267 0.157-0.733 0.27-1.4 0.12-0.667 0.237-1.377 0.35-2.13 0.12-0.747 0.18-1.32 0.18-1.72v0-24.2c0-0.433-0.043-0.993-0.13-1.68-0.08-0.68-0.18-1.387-0.3-2.12-0.113-0.733-0.22-1.35-0.32-1.85v0l1.95 2.3-5.5-1.2 0.25-2.5 4.45 0.15h2.75l0.95 0.9c-0.033 0.5-0.077 1.19-0.13 2.07-0.047 0.887-0.087 1.813-0.12 2.78-0.033 0.967-0.05 1.85-0.05 2.65v0 21.2c0 1.3 0.05 2.633 0.15 4 0.1 1.367 0.2 2.35 0.3 2.95v0l-1.85-1.85 5.65 0.5-0.35 2.6h-6.35c-0.333 0-0.817 0.017-1.45 0.05-0.633 0.033-1.31 0.067-2.03 0.1-0.713 0.033-1.387 0.067-2.02 0.1zM115.85 49.55v0l-0.25-2.65 3.15-0.55-2.7-2.9-7.35-7.45 9.6-9.85 0.5 1.5-3.75-0.5 0.25-2.6c0.433 0 0.89 0 1.37 0 0.487 0 0.963 0 1.43 0 0.467 0 0.85 0 1.15 0v0h6.45l0.15 2.6-5.5 0.6 2.45-0.6c-0.467 0.233-1.093 0.573-1.88 1.02-0.78 0.453-1.537 0.93-2.27 1.43-0.733 0.5-1.3 0.95-1.7 1.35v0l-5.3 5.6v-2.45l8.35 8.85c0.167 0.2 0.467 0.467 0.9 0.8 0.433 0.333 0.927 0.7 1.48 1.1 0.547 0.4 1.11 0.79 1.69 1.17 0.587 0.387 1.097 0.73 1.53 1.03v0l-2.7-0.85 4.8 0.45-0.3 2.6h-6.55c-0.467 0-1.227 0.033-2.28 0.1-1.047 0.067-1.953 0.133-2.72 0.2z" fill="#333333" fill-rule="nonzero" stroke="none" stroke-width="1" stroke-linecap="butt" stroke-linejoin="miter" stroke-miterlimit="10" stroke-dasharray="" stroke-dashoffset="0" font-family="none" font-weight="none" font-size="none" text-anchor="none" style="mix-blend-mode: normal" data-fill-palette-color="primary" opacity="1"></path><path d="M14.45 99.25v0c-2.433 0-4.633-0.3-6.6-0.9-1.967-0.6-3.417-1.183-4.35-1.75v0l0.75-7.55 3.25 0.3v2.3c0 0.167 0.027 0.44 0.08 0.82 0.047 0.387 0.103 0.803 0.17 1.25 0.067 0.453 0.143 0.87 0.23 1.25 0.08 0.387 0.153 0.68 0.22 0.88v0l-0.9-1.15c0.867 0.433 1.943 0.823 3.23 1.17 1.28 0.353 2.637 0.53 4.07 0.53v0c2.067 0 3.7-0.56 4.9-1.68 1.2-1.113 1.8-2.687 1.8-4.72v0c0-1.4-0.417-2.577-1.25-3.53-0.833-0.947-1.9-1.797-3.2-2.55-1.3-0.747-2.673-1.47-4.12-2.17-1.453-0.7-2.83-1.493-4.13-2.38-1.3-0.88-2.367-1.937-3.2-3.17-0.833-1.233-1.25-2.733-1.25-4.5v0c0-2 0.477-3.683 1.43-5.05 0.947-1.367 2.237-2.4 3.87-3.1 1.633-0.7 3.467-1.05 5.5-1.05v0c1.633 0 3.317 0.167 5.05 0.5 1.733 0.333 3.4 0.7 5 1.1v0l-0.7 7.4-2.9-0.35v-2.1c0-0.233-0.05-0.593-0.15-1.08-0.1-0.48-0.217-0.997-0.35-1.55-0.133-0.547-0.267-1.037-0.4-1.47v0l1.4 1.85c-1.433-0.767-2.65-1.243-3.65-1.43-1-0.18-2.183-0.27-3.55-0.27v0c-1.533 0-2.873 0.473-4.02 1.42-1.153 0.953-1.73 2.363-1.73 4.23v0c0 1.333 0.417 2.457 1.25 3.37 0.833 0.92 1.917 1.753 3.25 2.5 1.333 0.753 2.733 1.497 4.2 2.23 1.467 0.733 2.867 1.567 4.2 2.5 1.333 0.933 2.417 2.05 3.25 3.35 0.833 1.3 1.25 2.9 1.25 4.8v0c0 2.2-0.533 4.017-1.6 5.45-1.067 1.433-2.5 2.507-4.3 3.22-1.8 0.72-3.8 1.08-6 1.08zM43.5 99v0c-2.533 0-4.65-0.55-6.35-1.65-1.7-1.1-2.973-2.61-3.82-4.53-0.853-1.913-1.28-4.12-1.28-6.62v0c0-2.533 0.427-4.76 1.28-6.68 0.847-1.913 2.12-3.42 3.82-4.52 1.7-1.1 3.817-1.65 6.35-1.65v0c3.8 0 6.643 1.173 8.53 3.52 1.88 2.353 2.82 5.463 2.82 9.33v0c0 2.5-0.423 4.717-1.27 6.65-0.853 1.933-2.12 3.44-3.8 4.52-1.687 1.087-3.78 1.63-6.28 1.63zM43.5 96.3v0c1.8 0 3.217-0.5 4.25-1.5 1.033-1 1.76-2.277 2.18-3.83 0.413-1.547 0.62-3.137 0.62-4.77v0c0-1.667-0.207-3.277-0.62-4.83-0.42-1.547-1.147-2.82-2.18-3.82-1.033-1-2.45-1.5-4.25-1.5v0c-1.8 0-3.217 0.49-4.25 1.47-1.033 0.987-1.773 2.253-2.22 3.8-0.453 1.553-0.68 3.18-0.68 4.88v0c0 1.667 0.227 3.273 0.68 4.82 0.447 1.553 1.187 2.82 2.22 3.8 1.033 0.987 2.45 1.48 4.25 1.48zM58.55 98.75v0l-0.25-2.4 5.6-1.15-2 1.85c0.067-0.267 0.157-0.733 0.27-1.4 0.12-0.667 0.237-1.377 0.35-2.13 0.12-0.747 0.18-1.32 0.18-1.72v0-24.2c0-0.433-0.04-0.993-0.12-1.68-0.087-0.68-0.19-1.387-0.31-2.12-0.113-0.733-0.22-1.35-0.32-1.85v0l1.95 2.3-5.5-1.2 0.25-2.5 4.45 0.15h2.75l0.95 0.9c-0.033 0.5-0.077 1.19-0.13 2.07-0.047 0.887-0.087 1.813-0.12 2.78-0.033 0.967-0.05 1.85-0.05 2.65v0 21.2c0 1.333 0.05 2.677 0.15 4.03 0.1 1.347 0.2 2.32 0.3 2.92v0l-1.85-1.85 5.65 0.5-0.35 2.6h-6.35c-0.333 0-0.817 0.017-1.45 0.05-0.633 0.033-1.307 0.067-2.02 0.1-0.72 0.033-1.397 0.067-2.03 0.1zM84.85 99.05v0c-2.333 0-4.073-0.493-5.22-1.48-1.153-0.98-1.913-2.347-2.28-4.1-0.367-1.747-0.55-3.753-0.55-6.02v0-6.75c0-0.3-0.033-0.743-0.1-1.33-0.067-0.58-0.16-1.22-0.28-1.92-0.113-0.7-0.22-1.333-0.32-1.9v0l1.8 1.85-4.95-1 0.2-2.6h6.8l0.95 0.9c-0.033 0.7-0.083 1.517-0.15 2.45-0.067 0.933-0.117 1.85-0.15 2.75-0.033 0.9-0.05 1.667-0.05 2.3v0 7.15c0 1.933 0.367 3.523 1.1 4.77 0.733 1.253 2.067 1.88 4 1.88v0c1.433 0 2.617-0.383 3.55-1.15 0.933-0.767 1.64-1.76 2.12-2.98 0.487-1.213 0.73-2.47 0.73-3.77v0-7.4c0-0.3-0.033-0.743-0.1-1.33-0.067-0.58-0.15-1.22-0.25-1.92-0.1-0.7-0.2-1.333-0.3-1.9v0l1.85 1.8-5.2-0.95 0.2-2.6h6.95l0.95 0.9c-0.033 0.7-0.077 1.517-0.13 2.45-0.047 0.933-0.087 1.85-0.12 2.75-0.033 0.9-0.05 1.667-0.05 2.3v0 8.1c0 1.133 0.073 2.273 0.22 3.42 0.153 1.153 0.28 2.313 0.38 3.48v0l-1.8-1.85 5.2 0.55-0.3 2.6h-6.25l-0.95-5.55 0.5 1.2c-0.2 0.4-0.593 0.99-1.18 1.77-0.58 0.787-1.413 1.503-2.5 2.15-1.08 0.653-2.52 0.98-4.32 0.98zM111.95 99.25v0c-2.233 0-3.727-0.6-4.48-1.8-0.747-1.2-1.12-2.917-1.12-5.15v0-17.55l1.6 1.65h-5.8l-0.15-2c0.433-0.167 0.967-0.36 1.6-0.58 0.633-0.213 1.273-0.437 1.92-0.67 0.653-0.233 1.18-0.417 1.58-0.55v0l-1.7 1.65c0.167-0.2 0.39-0.56 0.67-1.08 0.287-0.513 0.58-1.097 0.88-1.75 0.3-0.647 0.583-1.237 0.85-1.77 0.267-0.533 0.45-0.917 0.55-1.15v0l1.8 0.2v23.8c0 1.133 0.2 2.017 0.6 2.65 0.4 0.633 1.167 0.95 2.3 0.95v0c0.733 0 1.49-0.177 2.27-0.53 0.787-0.347 1.497-0.803 2.13-1.37v0l1.35 2.15c-1.2 0.967-2.377 1.693-3.53 2.18-1.147 0.48-2.253 0.72-3.32 0.72zM117.3 76.4h-8v-2.6h8.25zM122.2 98.75v0l-0.25-2.4 5.6-1.15-2 1.85c0.067-0.267 0.157-0.733 0.27-1.4 0.12-0.667 0.237-1.377 0.35-2.13 0.12-0.747 0.18-1.32 0.18-1.72v0-11.1c0-0.433-0.043-0.993-0.13-1.68-0.08-0.68-0.18-1.387-0.3-2.12-0.113-0.733-0.22-1.35-0.32-1.85v0l1.95 2.3-5.5-0.95 0.25-2.6h7.2l0.95 0.9c-0.033 0.5-0.077 1.19-0.13 2.07-0.047 0.887-0.087 1.813-0.12 2.78-0.033 0.967-0.05 1.85-0.05 2.65v0 8.1c0 1.3 0.05 2.633 0.15 4 0.1 1.367 0.2 2.35 0.3 2.95v0l-1.85-1.85 5.65 0.5-0.35 2.6h-6.35c-0.333 0-0.817 0.017-1.45 0.05-0.633 0.033-1.31 0.067-2.03 0.1-0.713 0.033-1.387 0.067-2.02 0.1zM127.5 68.9v0c-0.933 0-1.65-0.283-2.15-0.85-0.5-0.567-0.75-1.317-0.75-2.25v0c0-0.967 0.25-1.74 0.75-2.32 0.5-0.587 1.217-0.88 2.15-0.88v0c0.933 0 1.65 0.273 2.15 0.82 0.5 0.553 0.75 1.347 0.75 2.38v0c0 0.933-0.243 1.683-0.73 2.25-0.48 0.567-1.203 0.85-2.17 0.85zM149.3 99v0c-2.533 0-4.65-0.55-6.35-1.65-1.7-1.1-2.973-2.61-3.82-4.53-0.853-1.913-1.28-4.12-1.28-6.62v0c0-2.533 0.427-4.76 1.28-6.68 0.847-1.913 2.12-3.42 3.82-4.52 1.7-1.1 3.817-1.65 6.35-1.65v0c3.8 0 6.64 1.173 8.52 3.52 1.887 2.353 2.83 5.463 2.83 9.33v0c0 2.5-0.423 4.717-1.27 6.65-0.853 1.933-2.123 3.44-3.81 4.52-1.68 1.087-3.77 1.63-6.27 1.63zM149.3 96.3v0c1.8 0 3.217-0.5 4.25-1.5 1.033-1 1.757-2.277 2.17-3.83 0.42-1.547 0.63-3.137 0.63-4.77v0c0-1.667-0.21-3.277-0.63-4.83-0.413-1.547-1.137-2.82-2.17-3.82-1.033-1-2.45-1.5-4.25-1.5v0c-1.8 0-3.217 0.49-4.25 1.47-1.033 0.987-1.777 2.253-2.23 3.8-0.447 1.553-0.67 3.18-0.67 4.88v0c0 1.667 0.223 3.273 0.67 4.82 0.453 1.553 1.197 2.82 2.23 3.8 1.033 0.987 2.45 1.48 4.25 1.48zM165.05 98.75v0l-0.25-2.4 5.6-1.15-2 1.85c0.067-0.267 0.16-0.733 0.28-1.4 0.113-0.667 0.23-1.377 0.35-2.13 0.113-0.747 0.17-1.32 0.17-1.72v0-11.1c0-0.433-0.05-1.027-0.15-1.78-0.1-0.747-0.217-1.497-0.35-2.25-0.133-0.747-0.233-1.287-0.3-1.62v0l2 2.3-5.5-0.95 0.25-2.6h6.2l0.95 0.9 0.7 7.5-1.1-2.9c0.5-1.267 1.143-2.333 1.93-3.2 0.78-0.867 1.703-1.533 2.77-2 1.067-0.467 2.233-0.7 3.5-0.7v0c2.367 0 4.15 0.473 5.35 1.42 1.2 0.953 2.017 2.297 2.45 4.03 0.433 1.733 0.65 3.767 0.65 6.1v0 5.35c0 1.233 0.06 2.45 0.18 3.65 0.113 1.2 0.22 2.133 0.32 2.8v0l-1.8-1.35 5.65 0.5-0.35 2.6h-6.4c-0.133 0-0.5 0.017-1.1 0.05-0.6 0.033-1.257 0.067-1.97 0.1-0.72 0.033-1.363 0.067-1.93 0.1v0l-0.25-2.4 5-1.2-1.85 1.15c0.1-0.333 0.21-0.743 0.33-1.23 0.113-0.48 0.213-1.003 0.3-1.57 0.08-0.567 0.12-1.133 0.12-1.7v0-6.9c0-1.467-0.133-2.86-0.4-4.18-0.267-1.313-0.783-2.387-1.55-3.22-0.767-0.833-1.883-1.25-3.35-1.25v0c-2.033 0-3.623 0.8-4.77 2.4-1.153 1.6-1.73 3.633-1.73 6.1v0 5.55c0 1.3 0.05 2.633 0.15 4 0.1 1.367 0.2 2.35 0.3 2.95v0l-1.85-1.85 5.65 0.5-0.35 2.6h-6.35c-0.333 0-0.817 0.017-1.45 0.05-0.633 0.033-1.307 0.067-2.02 0.1-0.72 0.033-1.397 0.067-2.03 0.1zM204.75 99v0c-2.033 0-3.69-0.26-4.97-0.78-1.287-0.513-2.213-0.937-2.78-1.27v0-6.45l2.85-0.2v2c0 0.233 0.083 0.617 0.25 1.15 0.167 0.533 0.383 1.083 0.65 1.65 0.267 0.567 0.533 1.05 0.8 1.45v0l-1.45-2.15c0.6 0.867 1.283 1.45 2.05 1.75 0.767 0.3 1.65 0.45 2.65 0.45v0c1.333 0 2.4-0.317 3.2-0.95 0.8-0.633 1.2-1.633 1.2-3v0c0-1.233-0.533-2.21-1.6-2.93-1.067-0.713-2.3-1.403-3.7-2.07v0c-0.833-0.4-1.667-0.827-2.5-1.28-0.833-0.447-1.59-0.963-2.27-1.55-0.687-0.58-1.24-1.27-1.66-2.07-0.413-0.8-0.62-1.75-0.62-2.85v0c0-2.067 0.74-3.677 2.22-4.83 1.487-1.147 3.313-1.72 5.48-1.72v0c1.1 0 2.267 0.073 3.5 0.22 1.233 0.153 2.433 0.363 3.6 0.63v0l-0.05 7.05-2.85-0.15v-1.75c0-0.2-0.093-0.567-0.28-1.1-0.18-0.533-0.377-1.093-0.59-1.68-0.22-0.58-0.397-1.037-0.53-1.37v0l1.7 1.85c-0.833-0.467-1.55-0.783-2.15-0.95-0.6-0.167-1.367-0.25-2.3-0.25v0c-1.167 0-2.117 0.29-2.85 0.87-0.733 0.587-1.1 1.413-1.1 2.48v0c0 1.167 0.533 2.107 1.6 2.82 1.067 0.72 2.3 1.397 3.7 2.03v0c0.867 0.4 1.717 0.833 2.55 1.3 0.833 0.467 1.6 0.99 2.3 1.57 0.7 0.587 1.257 1.27 1.67 2.05 0.42 0.787 0.63 1.713 0.63 2.78v0c0 2.633-0.75 4.5-2.25 5.6-1.5 1.1-3.533 1.65-6.1 1.65z" fill="#333333" fill-rule="nonzero" stroke="none" stroke-width="1" stroke-linecap="butt" stroke-linejoin="miter" stroke-miterlimit="10" stroke-dasharray="" stroke-dashoffset="0" font-family="none" font-weight="none" font-size="none" text-anchor="none" style="mix-blend-mode: normal" data-fill-palette-color="primary" opacity="1"></path><path d="M16.4 152l-1.25 0.95c-3.267-3.3-5.74-6.877-7.42-10.73-1.687-3.847-2.53-7.97-2.53-12.37v0c0-4.5 0.86-8.667 2.58-12.5 1.713-3.833 4.17-7.367 7.37-10.6v0l1.25 0.95c-1.433 2.333-2.633 4.723-3.6 7.17-0.967 2.453-1.7 4.93-2.2 7.43-0.5 2.5-0.75 5.017-0.75 7.55v0c0 2.5 0.25 5.007 0.75 7.52 0.5 2.52 1.233 5.003 2.2 7.45 0.967 2.453 2.167 4.847 3.6 7.18zM24.15 153v0l-0.85-2.55c3.133-0.533 5.86-1.35 8.18-2.45 2.313-1.1 4.113-2.393 5.4-3.88 1.28-1.48 1.92-3.037 1.92-4.67v0c0-1.867-0.65-3.377-1.95-4.53-1.3-1.147-2.983-1.72-5.05-1.72v0c-0.733 0-1.417 0.017-2.05 0.05-0.633 0.033-1.117 0.067-1.45 0.1v0l-0.7-2.3c3.333-0.367 5.8-1.177 7.4-2.43 1.6-1.247 2.4-2.937 2.4-5.07v0c0-2.067-0.483-3.643-1.45-4.73-0.967-1.08-2.333-1.62-4.1-1.62v0c-1.1 0-1.973 0.14-2.62 0.42-0.653 0.287-1.497 0.813-2.53 1.58v0l1.55-2.55c-0.1 0.467-0.223 1-0.37 1.6-0.153 0.6-0.27 1.14-0.35 1.62-0.087 0.487-0.13 0.83-0.13 1.03v0l0.1 2.2-2.65 0.15-0.65-7.15c1.567-0.533 2.943-0.907 4.13-1.12 1.18-0.22 2.403-0.33 3.67-0.33v0c3.167 0 5.6 0.69 7.3 2.07 1.7 1.387 2.55 3.397 2.55 6.03v0c0 2.033-0.633 3.807-1.9 5.32-1.267 1.52-3.05 2.647-5.35 3.38v0l-0.2-0.85c1.933 0.4 3.55 1 4.85 1.8 1.3 0.8 2.293 1.783 2.98 2.95 0.68 1.167 1.02 2.517 1.02 4.05v0c0 1.7-0.457 3.3-1.37 4.8-0.92 1.5-2.23 2.85-3.93 4.05-1.7 1.2-3.717 2.21-6.05 3.03-2.333 0.813-4.917 1.387-7.75 1.72zM61.65 148.5v0c-2.433 0-4.633-0.3-6.6-0.9-1.967-0.6-3.417-1.183-4.35-1.75v0l0.75-7.55 3.25 0.3v2.3c0 0.167 0.027 0.44 0.08 0.82 0.047 0.387 0.103 0.803 0.17 1.25 0.067 0.453 0.143 0.87 0.23 1.25 0.08 0.387 0.153 0.68 0.22 0.88v0l-0.9-1.15c0.867 0.433 1.943 0.823 3.23 1.17 1.28 0.353 2.637 0.53 4.07 0.53v0c2.067 0 3.7-0.56 4.9-1.68 1.2-1.113 1.8-2.687 1.8-4.72v0c0-1.4-0.417-2.577-1.25-3.53-0.833-0.947-1.9-1.797-3.2-2.55-1.3-0.747-2.673-1.47-4.12-2.17-1.453-0.7-2.83-1.493-4.13-2.38-1.3-0.88-2.367-1.937-3.2-3.17-0.833-1.233-1.25-2.733-1.25-4.5v0c0-2 0.477-3.683 1.43-5.05 0.947-1.367 2.237-2.4 3.87-3.1 1.633-0.7 3.467-1.05 5.5-1.05v0c1.633 0 3.317 0.167 5.05 0.5 1.733 0.333 3.4 0.7 5 1.1v0l-0.7 7.4-2.9-0.35v-2.1c0-0.233-0.05-0.593-0.15-1.08-0.1-0.48-0.217-0.997-0.35-1.55-0.133-0.547-0.267-1.037-0.4-1.47v0l1.4 1.85c-1.433-0.767-2.65-1.243-3.65-1.43-1-0.18-2.183-0.27-3.55-0.27v0c-1.533 0-2.873 0.473-4.02 1.42-1.153 0.953-1.73 2.363-1.73 4.23v0c0 1.333 0.417 2.457 1.25 3.37 0.833 0.92 1.917 1.753 3.25 2.5 1.333 0.753 2.733 1.497 4.2 2.23 1.467 0.733 2.867 1.567 4.2 2.5 1.333 0.933 2.417 2.05 3.25 3.35 0.833 1.3 1.25 2.9 1.25 4.8v0c0 2.2-0.533 4.017-1.6 5.45-1.067 1.433-2.5 2.507-4.3 3.22-1.8 0.72-3.8 1.08-6 1.08zM81.3 107.75l1.25-0.95c3.267 3.3 5.743 6.873 7.43 10.72 1.68 3.853 2.52 7.98 2.52 12.38v0c0 4.5-0.857 8.667-2.57 12.5-1.72 3.833-4.18 7.367-7.38 10.6v0l-1.25-0.95c1.433-2.333 2.633-4.727 3.6-7.18 0.967-2.447 1.7-4.93 2.2-7.45 0.5-2.513 0.75-5.02 0.75-7.52v0c0-2.5-0.25-5.01-0.75-7.53-0.5-2.513-1.233-5.003-2.2-7.47-0.967-2.467-2.167-4.85-3.6-7.15z" fill="#333333" fill-rule="nonzero" stroke="none" stroke-width="1" stroke-linecap="butt" stroke-linejoin="miter" stroke-miterlimit="10" stroke-dasharray="" stroke-dashoffset="0" font-family="none" font-weight="none" font-size="none" text-anchor="none" style="mix-blend-mode: normal" data-fill-palette-color="primary" opacity="1"></path></g></svg></g></svg></g><g transform="matrix(1,0,0,1,0,259.2884295650181)"><svg viewBox="0 0 248.3160871699492 11.372141650438008" height="11.372141650438008" width="248.3160871699492"><g transform="matrix(1,0,0,1,0,0)"><svg width="248.3160871699492" viewBox="3.78 -33.48 935.53 42.86" height="11.372141650438008" data-palette-color="#f36944"><path d="M17.05 0L17.05 0 6.6 0 6.6-3.43 16.65-3.43Q19.9-3.43 21.26-4.81 22.63-6.2 22.63-8.65L22.63-8.65 22.63-9.55Q22.63-12.05 21.24-13.43 19.85-14.8 16.4-14.8L16.4-14.8 6.63-14.8 6.63-18.07 16.35-18.07Q19.43-18.07 20.74-19.41 22.05-20.75 22.05-23.13L22.05-23.13 22.05-23.58Q22.05-25.93 20.79-27.24 19.53-28.55 16.32-28.55L16.32-28.55 6.53-28.55 6.53-31.95 16.7-31.95Q21.8-31.95 24-29.93 26.2-27.9 26.2-24.23L26.2-24.23 26.2-23.73Q26.2-20.8 24.8-19.13 23.4-17.45 20.45-17.13L20.45-17.13 20.43-16.98Q23.8-16.48 25.33-14.63 26.85-12.78 26.85-9.47L26.85-9.47 26.85-8.45Q26.85-4.48 24.55-2.24 22.25 0 17.05 0ZM7.88-31.95L7.88 0 3.78 0 3.78-31.95 7.88-31.95ZM32.05-8.78L32.05-24.4 36.07-24.4 36.07-9.22Q36.07-7.3 36.61-5.86 37.15-4.42 38.37-3.64 39.6-2.85 41.67-2.85L41.67-2.85Q43.62-2.85 45.02-3.56 46.42-4.28 47.31-5.53 48.2-6.78 48.52-8.35L48.52-8.35 49.25-5.48 48.37-5.48Q48-3.83 47-2.46 46-1.1 44.31-0.29 42.62 0.53 40.15 0.53L40.15 0.53Q37.27 0.53 35.48-0.56 33.7-1.65 32.87-3.74 32.05-5.83 32.05-8.78L32.05-8.78ZM48.35-6.1L48.35-24.4 52.4-24.4 52.4 0 48.35 0 48.52-5.85 48.35-6.1ZM63.12-24.4L63.12 0 59.07 0 59.07-24.4 63.12-24.4ZM61.1-28.4L61.1-28.4Q59.85-28.4 59.23-29.06 58.62-29.73 58.62-30.88L58.62-30.88 58.62-31Q58.62-32.18 59.23-32.83 59.85-33.48 61.1-33.48L61.1-33.48Q62.35-33.48 62.97-32.83 63.6-32.18 63.6-31L63.6-31 63.6-30.88Q63.6-29.7 62.97-29.05 62.35-28.4 61.1-28.4ZM73.97-33.13L73.97 0 69.94 0 69.94-33.13 73.97-33.13ZM88.74 0.53L88.74 0.53Q84.34 0.53 82.04-2.2 79.74-4.93 79.74-10.15L79.74-10.15 79.74-14.18Q79.74-19.43 82.07-22.19 84.39-24.95 88.92-24.95L88.92-24.95Q91.17-24.95 92.82-24.19 94.47-23.43 95.49-22.05 96.52-20.68 96.87-18.8L96.87-18.8 98.19-18.8 96.99-15.08Q96.92-17.23 96.03-18.69 95.14-20.15 93.63-20.9 92.12-21.65 90.17-21.65L90.17-21.65Q87.07-21.65 85.43-19.85 83.79-18.05 83.79-14.55L83.79-14.55 83.79-9.9Q83.79-6.45 85.43-4.65 87.07-2.85 90.17-2.85L90.17-2.85Q92.02-2.85 93.44-3.56 94.87-4.28 95.8-5.54 96.74-6.8 97.09-8.4L97.09-8.4 98.09-5.5 96.89-5.5Q96.54-3.85 95.55-2.48 94.57-1.1 92.9-0.29 91.24 0.53 88.74 0.53ZM100.94-33.13L100.94 0 96.89 0 97.07-5.9 96.99-7.2 96.99-17.4 97.02-18.25 96.92-25.18 96.92-33.13 100.94-33.13ZM111.66-24.4L111.66 0 107.61 0 107.61-24.4 111.66-24.4ZM109.64-28.4L109.64-28.4Q108.39-28.4 107.78-29.06 107.16-29.73 107.16-30.88L107.16-30.88 107.16-31Q107.16-32.18 107.78-32.83 108.39-33.48 109.64-33.48L109.64-33.48Q110.89-33.48 111.51-32.83 112.14-32.18 112.14-31L112.14-31 112.14-30.88Q112.14-29.7 111.51-29.05 110.89-28.4 109.64-28.4ZM138.74-15.63L138.74 0 134.69 0 134.69-15.18Q134.69-17.15 134.15-18.57 133.61-20 132.4-20.79 131.19-21.58 129.09-21.58L129.09-21.58Q127.16-21.58 125.75-20.85 124.34-20.13 123.46-18.89 122.59-17.65 122.24-16.07L122.24-16.07 121.51-18.95 122.39-18.95Q122.79-20.6 123.79-21.96 124.79-23.33 126.47-24.14 128.16-24.95 130.61-24.95L130.61-24.95Q133.51-24.95 135.3-23.85 137.09-22.75 137.91-20.69 138.74-18.63 138.74-15.63L138.74-15.63ZM122.41-18.32L122.41 0 118.36 0 118.36-24.4 122.41-24.4 122.24-18.55 122.41-18.32ZM154.51-7.3L154.51-7.3Q149.53-7.3 146.87-9.47 144.21-11.65 144.21-15.7L144.21-15.7 144.21-16.32Q144.21-18.85 145.25-20.73 146.28-22.6 148.56-23.66 150.83-24.73 154.51-24.83L154.51-24.83 166.96-25.23 166.96-22.03 159.61-22.28 159.58-22.1Q161.31-21.75 162.41-20.9 163.51-20.05 164.05-18.78 164.58-17.5 164.58-15.8L164.58-15.8 164.58-15.25Q164.58-11.38 162.03-9.34 159.48-7.3 154.51-7.3ZM154.33 6.15L154.33 6.15 154.91 6.15Q157.16 6.15 158.77 5.81 160.38 5.48 161.26 4.75 162.13 4.03 162.13 2.83L162.13 2.83 162.13 2.73Q162.13 1.33 161.12 0.59 160.11-0.15 157.66-0.38L157.66-0.38 150.76-1 151.91-1.05Q150.51-0.85 149.45-0.4 148.38 0.05 147.78 0.79 147.18 1.53 147.18 2.63L147.18 2.63 147.18 2.68Q147.18 3.95 148.06 4.73 148.93 5.5 150.53 5.83 152.13 6.15 154.33 6.15ZM154.83 9.38L154.83 9.38 154.11 9.38Q150.81 9.38 148.42 8.81 146.03 8.25 144.72 6.99 143.41 5.73 143.41 3.6L143.41 3.6 143.41 3.5Q143.41 2 144.12 1 144.83 0 146.05-0.58 147.26-1.15 148.76-1.35L148.76-1.35 148.73-1.5Q146.68-1.85 145.71-2.71 144.73-3.58 144.73-4.95L144.73-4.95 144.73-4.98Q144.73-5.93 145.17-6.6 145.61-7.28 146.5-7.68 147.38-8.08 148.76-8.18L148.76-8.18 148.76-8.68 153.41-7.5 151.51-7.55Q149.81-7.53 149.16-7.14 148.51-6.75 148.51-5.98L148.51-5.98 148.51-5.95Q148.51-5.13 149.43-4.7 150.36-4.28 152.58-4.03L152.58-4.03 158.51-3.43Q162.38-3.03 164.16-1.56 165.93-0.1 165.93 2.75L165.93 2.75 165.93 2.88Q165.93 5.15 164.58 6.6 163.23 8.05 160.76 8.71 158.28 9.38 154.83 9.38ZM154.46-10.3L154.46-10.3Q156.56-10.3 157.95-10.91 159.33-11.53 160.05-12.76 160.76-14 160.76-15.8L160.76-15.8 160.76-16.4Q160.76-18.15 160.07-19.38 159.38-20.6 158.01-21.24 156.63-21.88 154.56-21.88L154.56-21.88 154.41-21.88Q152.16-21.88 150.75-21.19 149.33-20.5 148.7-19.26 148.06-18.03 148.06-16.38L148.06-16.38 148.06-15.8Q148.06-14 148.77-12.78 149.48-11.55 150.91-10.93 152.33-10.3 154.46-10.3ZM195 0L195 0 184.55 0 184.55-3.43 194.6-3.43Q197.85-3.43 199.22-4.81 200.58-6.2 200.58-8.65L200.58-8.65 200.58-9.55Q200.58-12.05 199.19-13.43 197.8-14.8 194.35-14.8L194.35-14.8 184.58-14.8 184.58-18.07 194.3-18.07Q197.38-18.07 198.69-19.41 200-20.75 200-23.13L200-23.13 200-23.58Q200-25.93 198.74-27.24 197.48-28.55 194.28-28.55L194.28-28.55 184.48-28.55 184.48-31.95 194.65-31.95Q199.75-31.95 201.95-29.93 204.15-27.9 204.15-24.23L204.15-24.23 204.15-23.73Q204.15-20.8 202.75-19.13 201.35-17.45 198.4-17.13L198.4-17.13 198.38-16.98Q201.75-16.48 203.28-14.63 204.8-12.78 204.8-9.47L204.8-9.47 204.8-8.45Q204.8-4.48 202.5-2.24 200.2 0 195 0ZM185.83-31.95L185.83 0 181.73 0 181.73-31.95 185.83-31.95ZM220.55 0.55L220.55 0.55Q214.98 0.55 212.15-2.18 209.33-4.9 209.33-9.98L209.33-9.98 209.33-14.33Q209.33-19.48 211.95-22.26 214.58-25.05 219.63-25.05L219.63-25.05Q223.03-25.05 225.3-23.79 227.58-22.53 228.73-20.2 229.88-17.88 229.88-14.65L229.88-14.65 229.88-13.75Q229.88-12.95 229.81-12.15 229.75-11.35 229.65-10.58L229.65-10.58 225.93-10.58Q225.98-11.78 225.99-12.85 226-13.93 226-14.83L226-14.83Q226-17.05 225.29-18.59 224.58-20.13 223.16-20.94 221.75-21.75 219.63-21.75L219.63-21.75Q216.48-21.75 214.9-19.93 213.33-18.1 213.33-14.7L213.33-14.7 213.33-12.38 213.35-11.88 213.35-9.55Q213.35-8.03 213.8-6.8 214.25-5.58 215.21-4.69 216.18-3.8 217.66-3.34 219.15-2.88 221.2-2.88L221.2-2.88Q223.58-2.88 225.63-3.5 227.68-4.13 229.48-5.2L229.48-5.2 229.1-1.7Q227.48-0.68 225.33-0.06 223.18 0.55 220.55 0.55ZM228.8-13.63L228.8-10.58 211.45-10.58 211.45-13.63 228.8-13.63ZM244.15 0.5L244.15 0.5Q241.32 0.5 239.6-0.35 237.87-1.2 237.1-2.93 236.32-4.65 236.32-7.23L236.32-7.23 236.32-22.63 240.32-22.63 240.32-7.7Q240.32-5.3 241.42-4.16 242.52-3.03 245.12-3.03L245.12-3.03Q246.6-3.03 247.96-3.35 249.32-3.68 250.52-4.28L250.52-4.28 250.15-0.8Q248.97-0.2 247.4 0.15 245.82 0.5 244.15 0.5ZM250.27-24.05L249.9-20.8 232.32-20.8 232.32-24.05 250.27-24.05ZM240.4-31.03L240.22-23.65 236.35-23.65 236.32-30.5 240.4-31.03ZM263.92 0.5L263.92 0.5Q261.1 0.5 259.37-0.35 257.65-1.2 256.87-2.93 256.1-4.65 256.1-7.23L256.1-7.23 256.1-22.63 260.1-22.63 260.1-7.7Q260.1-5.3 261.2-4.16 262.3-3.03 264.9-3.03L264.9-3.03Q266.37-3.03 267.73-3.35 269.1-3.68 270.3-4.28L270.3-4.28 269.92-0.8Q268.75-0.2 267.17 0.15 265.6 0.5 263.92 0.5ZM270.05-24.05L269.67-20.8 252.1-20.8 252.1-24.05 270.05-24.05ZM260.17-31.03L260-23.65 256.12-23.65 256.1-30.5 260.17-31.03ZM285.07 0.55L285.07 0.55Q279.49 0.55 276.67-2.18 273.84-4.9 273.84-9.98L273.84-9.98 273.84-14.33Q273.84-19.48 276.47-22.26 279.09-25.05 284.14-25.05L284.14-25.05Q287.54-25.05 289.82-23.79 292.09-22.53 293.24-20.2 294.39-17.88 294.39-14.65L294.39-14.65 294.39-13.75Q294.39-12.95 294.33-12.15 294.27-11.35 294.17-10.58L294.17-10.58 290.44-10.58Q290.49-11.78 290.51-12.85 290.52-13.93 290.52-14.83L290.52-14.83Q290.52-17.05 289.81-18.59 289.09-20.13 287.68-20.94 286.27-21.75 284.14-21.75L284.14-21.75Q280.99-21.75 279.42-19.93 277.84-18.1 277.84-14.7L277.84-14.7 277.84-12.38 277.87-11.88 277.87-9.55Q277.87-8.03 278.32-6.8 278.77-5.58 279.73-4.69 280.69-3.8 282.18-3.34 283.67-2.88 285.72-2.88L285.72-2.88Q288.09-2.88 290.14-3.5 292.19-4.13 293.99-5.2L293.99-5.2 293.62-1.7Q291.99-0.68 289.84-0.06 287.69 0.55 285.07 0.55ZM293.32-13.63L293.32-10.58 275.97-10.58 275.97-13.63 293.32-13.63ZM303.64-14.93L303.64-14.93 302.72-18.05 303.72-18.1Q304.52-21.2 306.47-22.99 308.42-24.78 311.64-24.78L311.64-24.78Q312.44-24.78 313.08-24.65 313.72-24.53 314.22-24.35L314.22-24.35 314.47-20.43Q313.84-20.63 313.08-20.75 312.32-20.88 311.39-20.88L311.39-20.88Q308.64-20.88 306.6-19.35 304.57-17.82 303.64-14.93ZM303.84-16.9L303.84 0 299.79 0 299.79-24.4 303.74-24.4 303.54-17.2 303.84-16.9ZM342.81 0L342.81 0 332.36 0 332.36-3.43 342.41-3.43Q345.66-3.43 347.02-4.81 348.39-6.2 348.39-8.65L348.39-8.65 348.39-9.55Q348.39-12.05 347-13.43 345.61-14.8 342.16-14.8L342.16-14.8 332.39-14.8 332.39-18.07 342.11-18.07Q345.19-18.07 346.5-19.41 347.81-20.75 347.81-23.13L347.81-23.13 347.81-23.58Q347.81-25.93 346.55-27.24 345.29-28.55 342.09-28.55L342.09-28.55 332.29-28.55 332.29-31.95 342.46-31.95Q347.56-31.95 349.76-29.93 351.96-27.9 351.96-24.23L351.96-24.23 351.96-23.73Q351.96-20.8 350.56-19.13 349.16-17.45 346.21-17.13L346.21-17.13 346.19-16.98Q349.56-16.48 351.09-14.63 352.61-12.78 352.61-9.47L352.61-9.47 352.61-8.45Q352.61-4.48 350.31-2.24 348.01 0 342.81 0ZM333.64-31.95L333.64 0 329.54 0 329.54-31.95 333.64-31.95ZM357.81-8.78L357.81-24.4 361.83-24.4 361.83-9.22Q361.83-7.3 362.37-5.86 362.91-4.42 364.13-3.64 365.36-2.85 367.43-2.85L367.43-2.85Q369.38-2.85 370.78-3.56 372.18-4.28 373.07-5.53 373.96-6.78 374.28-8.35L374.28-8.35 375.01-5.48 374.13-5.48Q373.76-3.83 372.76-2.46 371.76-1.1 370.07-0.29 368.38 0.53 365.91 0.53L365.91 0.53Q363.03 0.53 361.25-0.56 359.46-1.65 358.63-3.74 357.81-5.83 357.81-8.78L357.81-8.78ZM374.11-6.1L374.11-24.4 378.16-24.4 378.16 0 374.11 0 374.28-5.85 374.11-6.1ZM392.38 0.55L392.38 0.55Q389.43 0.55 387.23-0.09 385.03-0.73 383.58-1.48L383.58-1.48 383.21-5.23Q385.03-4.28 387.22-3.58 389.41-2.88 392.18-2.88L392.18-2.88Q395.01-2.88 396.43-3.78 397.86-4.67 397.86-6.45L397.86-6.45 397.86-6.73Q397.86-7.88 397.32-8.63 396.78-9.38 395.38-9.95 393.98-10.53 391.41-11.1L391.41-11.1Q388.33-11.78 386.56-12.69 384.78-13.6 384.02-14.95 383.26-16.3 383.26-18.25L383.26-18.25 383.26-18.48Q383.26-21.68 385.48-23.33 387.71-24.98 392.18-24.98L392.18-24.98Q395.06-24.98 397.17-24.33 399.28-23.68 400.63-22.88L400.63-22.88 401.01-19.45Q399.38-20.4 397.28-21.03 395.18-21.65 392.56-21.65L392.56-21.65Q390.66-21.65 389.48-21.26 388.31-20.88 387.78-20.16 387.26-19.45 387.26-18.45L387.26-18.45 387.26-18.25Q387.26-17.15 387.78-16.39 388.31-15.63 389.67-15.06 391.03-14.5 393.46-13.98L393.46-13.98Q396.58-13.35 398.42-12.48 400.26-11.6 401.06-10.26 401.86-8.93 401.86-6.83L401.86-6.83 401.86-6.4Q401.86-2.95 399.46-1.2 397.06 0.55 392.38 0.55ZM410.93-24.4L410.93 0 406.88 0 406.88-24.4 410.93-24.4ZM408.9-28.4L408.9-28.4Q407.65-28.4 407.04-29.06 406.43-29.73 406.43-30.88L406.43-30.88 406.43-31Q406.43-32.18 407.04-32.83 407.65-33.48 408.9-33.48L408.9-33.48Q410.15-33.48 410.78-32.83 411.4-32.18 411.4-31L411.4-31 411.4-30.88Q411.4-29.7 410.78-29.05 410.15-28.4 408.9-28.4ZM438-15.63L438 0 433.95 0 433.95-15.18Q433.95-17.15 433.41-18.57 432.88-20 431.66-20.79 430.45-21.58 428.35-21.58L428.35-21.58Q426.43-21.58 425.01-20.85 423.6-20.13 422.73-18.89 421.85-17.65 421.5-16.07L421.5-16.07 420.78-18.95 421.65-18.95Q422.05-20.6 423.05-21.96 424.05-23.33 425.74-24.14 427.43-24.95 429.88-24.95L429.88-24.95Q432.78-24.95 434.56-23.85 436.35-22.75 437.18-20.69 438-18.63 438-15.63L438-15.63ZM421.68-18.32L421.68 0 417.63 0 417.63-24.4 421.68-24.4 421.5-18.55 421.68-18.32ZM454.52 0.55L454.52 0.55Q448.95 0.55 446.12-2.18 443.3-4.9 443.3-9.98L443.3-9.98 443.3-14.33Q443.3-19.48 445.92-22.26 448.55-25.05 453.6-25.05L453.6-25.05Q457-25.05 459.27-23.79 461.55-22.53 462.7-20.2 463.85-17.88 463.85-14.65L463.85-14.65 463.85-13.75Q463.85-12.95 463.79-12.15 463.72-11.35 463.62-10.58L463.62-10.58 459.9-10.58Q459.95-11.78 459.96-12.85 459.97-13.93 459.97-14.83L459.97-14.83Q459.97-17.05 459.26-18.59 458.55-20.13 457.14-20.94 455.72-21.75 453.6-21.75L453.6-21.75Q450.45-21.75 448.87-19.93 447.3-18.1 447.3-14.7L447.3-14.7 447.3-12.38 447.32-11.88 447.32-9.55Q447.32-8.03 447.77-6.8 448.22-5.58 449.19-4.69 450.15-3.8 451.64-3.34 453.12-2.88 455.17-2.88L455.17-2.88Q457.55-2.88 459.6-3.5 461.65-4.13 463.45-5.2L463.45-5.2 463.07-1.7Q461.45-0.68 459.3-0.06 457.15 0.55 454.52 0.55ZM462.77-13.63L462.77-10.58 445.42-10.58 445.42-13.63 462.77-13.63ZM476.87 0.55L476.87 0.55Q473.92 0.55 471.72-0.09 469.52-0.73 468.07-1.48L468.07-1.48 467.7-5.23Q469.52-4.28 471.71-3.58 473.9-2.88 476.67-2.88L476.67-2.88Q479.5-2.88 480.92-3.78 482.35-4.67 482.35-6.45L482.35-6.45 482.35-6.73Q482.35-7.88 481.81-8.63 481.27-9.38 479.87-9.95 478.47-10.53 475.9-11.1L475.9-11.1Q472.82-11.78 471.05-12.69 469.27-13.6 468.51-14.95 467.75-16.3 467.75-18.25L467.75-18.25 467.75-18.48Q467.75-21.68 469.97-23.33 472.2-24.98 476.67-24.98L476.67-24.98Q479.55-24.98 481.66-24.33 483.77-23.68 485.12-22.88L485.12-22.88 485.5-19.45Q483.87-20.4 481.77-21.03 479.67-21.65 477.05-21.65L477.05-21.65Q475.15-21.65 473.97-21.26 472.8-20.88 472.27-20.16 471.75-19.45 471.75-18.45L471.75-18.45 471.75-18.25Q471.75-17.15 472.27-16.39 472.8-15.63 474.16-15.06 475.52-14.5 477.95-13.98L477.95-13.98Q481.07-13.35 482.91-12.48 484.75-11.6 485.55-10.26 486.35-8.93 486.35-6.83L486.35-6.83 486.35-6.4Q486.35-2.95 483.95-1.2 481.55 0.55 476.87 0.55ZM498.92 0.55L498.92 0.55Q495.97 0.55 493.77-0.09 491.57-0.73 490.12-1.48L490.12-1.48 489.74-5.23Q491.57-4.28 493.76-3.58 495.94-2.88 498.72-2.88L498.72-2.88Q501.54-2.88 502.97-3.78 504.39-4.67 504.39-6.45L504.39-6.45 504.39-6.73Q504.39-7.88 503.86-8.63 503.32-9.38 501.92-9.95 500.52-10.53 497.94-11.1L497.94-11.1Q494.87-11.78 493.09-12.69 491.32-13.6 490.56-14.95 489.79-16.3 489.79-18.25L489.79-18.25 489.79-18.48Q489.79-21.68 492.02-23.33 494.24-24.98 498.72-24.98L498.72-24.98Q501.59-24.98 503.71-24.33 505.82-23.68 507.17-22.88L507.17-22.88 507.54-19.45Q505.92-20.4 503.82-21.03 501.72-21.65 499.09-21.65L499.09-21.65Q497.19-21.65 496.02-21.26 494.84-20.88 494.32-20.16 493.79-19.45 493.79-18.45L493.79-18.45 493.79-18.25Q493.79-17.15 494.32-16.39 494.84-15.63 496.21-15.06 497.57-14.5 499.99-13.98L499.99-13.98Q503.12-13.35 504.96-12.48 506.79-11.6 507.59-10.26 508.39-8.93 508.39-6.83L508.39-6.83 508.39-6.4Q508.39-2.95 505.99-1.2 503.59 0.55 498.92 0.55ZM538.41-17.35L534.29 0 528.06 0 522.06-24.4 526.24-24.4 531.04-2.95 531.51-2.95 536.51-23.75 542.24-23.75 547.24-2.95 547.69-2.95 552.54-24.4 556.69-24.4 550.69 0 544.49 0 540.36-17.35 539.56-20.83 539.19-20.83 538.41-17.35ZM565.51-24.4L565.51 0 561.46 0 561.46-24.4 565.51-24.4ZM563.48-28.4L563.48-28.4Q562.23-28.4 561.62-29.06 561.01-29.73 561.01-30.88L561.01-30.88 561.01-31Q561.01-32.18 561.62-32.83 562.23-33.48 563.48-33.48L563.48-33.48Q564.73-33.48 565.36-32.83 565.98-32.18 565.98-31L565.98-31 565.98-30.88Q565.98-29.7 565.36-29.05 564.73-28.4 563.48-28.4ZM581.08 0.5L581.08 0.5Q578.26 0.5 576.53-0.35 574.81-1.2 574.03-2.93 573.26-4.65 573.26-7.23L573.26-7.23 573.26-22.63 577.26-22.63 577.26-7.7Q577.26-5.3 578.36-4.16 579.46-3.03 582.06-3.03L582.06-3.03Q583.53-3.03 584.89-3.35 586.26-3.68 587.46-4.28L587.46-4.28 587.08-0.8Q585.91-0.2 584.33 0.15 582.76 0.5 581.08 0.5ZM587.21-24.05L586.83-20.8 569.26-20.8 569.26-24.05 587.21-24.05ZM577.33-31.03L577.16-23.65 573.28-23.65 573.26-30.5 577.33-31.03ZM612.35-15.63L612.35 0 608.3 0 608.3-15.18Q608.3-17.15 607.77-18.57 607.23-20 606.02-20.79 604.8-21.58 602.7-21.58L602.7-21.58Q600.78-21.58 599.38-20.85 597.98-20.13 597.12-18.89 596.25-17.65 595.9-16.07L595.9-16.07 595-18.95 596.05-18.95Q596.43-20.6 597.43-21.96 598.43-23.33 600.12-24.14 601.8-24.95 604.23-24.95L604.23-24.95Q607.13-24.95 608.92-23.85 610.7-22.75 611.53-20.69 612.35-18.63 612.35-15.63L612.35-15.63ZM596.03-17.85L596.03 0 591.98 0 591.98-33.13 596-33.13 596-25.18 595.88-18.18 596.03-17.85ZM638.62 0.58L638.62 0.58Q636.32 0.58 634.41 0.2 632.5-0.18 631-0.73 629.5-1.28 628.5-1.83L628.5-1.83 628.07-5.95Q630-4.8 632.61-3.94 635.22-3.08 638.3-3.08L638.3-3.08Q642-3.08 643.77-4.39 645.55-5.7 645.55-8.33L645.55-8.33 645.55-8.72Q645.55-10.45 644.85-11.55 644.15-12.65 642.49-13.4 640.82-14.15 637.97-14.8L637.97-14.8Q634.37-15.65 632.21-16.81 630.05-17.98 629.09-19.73 628.12-21.48 628.12-24.08L628.12-24.08 628.12-24.3Q628.12-28.23 630.7-30.36 633.27-32.5 638.5-32.5L638.5-32.5Q641.92-32.5 644.34-31.8 646.75-31.1 648.27-30.25L648.27-30.25 648.65-26.45Q646.87-27.5 644.51-28.24 642.15-28.98 639.1-28.98L639.1-28.98Q636.67-28.98 635.17-28.4 633.67-27.83 633-26.75 632.32-25.68 632.32-24.15L632.32-24.15 632.32-24.05Q632.32-22.5 632.99-21.4 633.65-20.3 635.31-19.5 636.97-18.7 640.05-17.95L640.05-17.95Q643.57-17.13 645.7-16.05 647.82-14.98 648.79-13.25 649.75-11.53 649.75-8.75L649.75-8.75 649.75-8.22Q649.75-3.9 646.96-1.66 644.17 0.58 638.62 0.58ZM665 0.63L665 0.63Q659.75 0.63 657.03-2.21 654.32-5.05 654.32-10.38L654.32-10.38 654.32-14.1Q654.32-19.4 657.05-22.23 659.77-25.05 665-25.05L665-25.05Q670.25-25.05 672.96-22.23 675.67-19.4 675.67-14.1L675.67-14.1 675.67-10.38Q675.67-5.05 672.96-2.21 670.25 0.63 665 0.63ZM665-2.68L665-2.68Q668.25-2.68 669.93-4.6 671.62-6.53 671.62-10.15L671.62-10.15 671.62-14.33Q671.62-17.93 669.93-19.84 668.25-21.75 665-21.75L665-21.75Q661.77-21.75 660.07-19.84 658.37-17.93 658.37-14.33L658.37-14.33 658.37-10.15Q658.37-6.53 660.07-4.6 661.77-2.68 665-2.68ZM685.44-33.13L685.44 0 681.42 0 681.42-33.13 685.44-33.13ZM696.29-24.4L696.29 0 692.24 0 692.24-24.4 696.29-24.4ZM694.27-28.4L694.27-28.4Q693.02-28.4 692.4-29.06 691.79-29.73 691.79-30.88L691.79-30.88 691.79-31Q691.79-32.18 692.4-32.83 693.02-33.48 694.27-33.48L694.27-33.48Q695.52-33.48 696.14-32.83 696.77-32.18 696.77-31L696.77-31 696.77-30.88Q696.77-29.7 696.14-29.05 695.52-28.4 694.27-28.4ZM711.04 0.53L711.04 0.53Q706.64 0.53 704.34-2.2 702.04-4.93 702.04-10.15L702.04-10.15 702.04-14.18Q702.04-19.43 704.36-22.19 706.69-24.95 711.21-24.95L711.21-24.95Q713.46-24.95 715.11-24.19 716.76-23.43 717.79-22.05 718.81-20.68 719.16-18.8L719.16-18.8 720.49-18.8 719.29-15.08Q719.21-17.23 718.33-18.69 717.44-20.15 715.93-20.9 714.41-21.65 712.46-21.65L712.46-21.65Q709.36-21.65 707.73-19.85 706.09-18.05 706.09-14.55L706.09-14.55 706.09-9.9Q706.09-6.45 707.73-4.65 709.36-2.85 712.46-2.85L712.46-2.85Q714.31-2.85 715.74-3.56 717.16-4.28 718.1-5.54 719.04-6.8 719.39-8.4L719.39-8.4 720.39-5.5 719.19-5.5Q718.84-3.85 717.85-2.48 716.86-1.1 715.2-0.29 713.54 0.53 711.04 0.53ZM723.24-33.13L723.24 0 719.19 0 719.36-5.9 719.29-7.2 719.29-17.4 719.31-18.25 719.21-25.18 719.21-33.13 723.24-33.13ZM749.83 0.58L749.83 0.58Q747.53 0.58 745.62 0.2 743.71-0.18 742.21-0.73 740.71-1.28 739.71-1.83L739.71-1.83 739.28-5.95Q741.21-4.8 743.82-3.94 746.43-3.08 749.51-3.08L749.51-3.08Q753.21-3.08 754.98-4.39 756.76-5.7 756.76-8.33L756.76-8.33 756.76-8.72Q756.76-10.45 756.06-11.55 755.36-12.65 753.7-13.4 752.03-14.15 749.18-14.8L749.18-14.8Q745.58-15.65 743.42-16.81 741.26-17.98 740.3-19.73 739.33-21.48 739.33-24.08L739.33-24.08 739.33-24.3Q739.33-28.23 741.91-30.36 744.48-32.5 749.71-32.5L749.71-32.5Q753.13-32.5 755.55-31.8 757.96-31.1 759.48-30.25L759.48-30.25 759.86-26.45Q758.08-27.5 755.72-28.24 753.36-28.98 750.31-28.98L750.31-28.98Q747.88-28.98 746.38-28.4 744.88-27.83 744.21-26.75 743.53-25.68 743.53-24.15L743.53-24.15 743.53-24.05Q743.53-22.5 744.2-21.4 744.86-20.3 746.52-19.5 748.18-18.7 751.26-17.95L751.26-17.95Q754.78-17.13 756.91-16.05 759.03-14.98 760-13.25 760.96-11.53 760.96-8.75L760.96-8.75 760.96-8.22Q760.96-3.9 758.17-1.66 755.38 0.58 749.83 0.58ZM776.21 0.63L776.21 0.63Q770.96 0.63 768.24-2.21 765.53-5.05 765.53-10.38L765.53-10.38 765.53-14.1Q765.53-19.4 768.26-22.23 770.98-25.05 776.21-25.05L776.21-25.05Q781.46-25.05 784.17-22.23 786.88-19.4 786.88-14.1L786.88-14.1 786.88-10.38Q786.88-5.05 784.17-2.21 781.46 0.63 776.21 0.63ZM776.21-2.68L776.21-2.68Q779.46-2.68 781.14-4.6 782.83-6.53 782.83-10.15L782.83-10.15 782.83-14.33Q782.83-17.93 781.14-19.84 779.46-21.75 776.21-21.75L776.21-21.75Q772.98-21.75 771.28-19.84 769.58-17.93 769.58-14.33L769.58-14.33 769.58-10.15Q769.58-6.53 771.28-4.6 772.98-2.68 776.21-2.68ZM796.65-33.13L796.65 0 792.63 0 792.63-33.13 796.65-33.13ZM803.08-8.78L803.08-24.4 807.1-24.4 807.1-9.22Q807.1-7.3 807.64-5.86 808.18-4.42 809.4-3.64 810.63-2.85 812.7-2.85L812.7-2.85Q814.65-2.85 816.05-3.56 817.45-4.28 818.34-5.53 819.23-6.78 819.55-8.35L819.55-8.35 820.28-5.48 819.4-5.48Q819.03-3.83 818.03-2.46 817.03-1.1 815.34-0.29 813.65 0.53 811.18 0.53L811.18 0.53Q808.3 0.53 806.51-0.56 804.73-1.65 803.9-3.74 803.08-5.83 803.08-8.78L803.08-8.78ZM819.38-6.1L819.38-24.4 823.43-24.4 823.43 0 819.38 0 819.55-5.85 819.38-6.1ZM838.9 0.5L838.9 0.5Q836.07 0.5 834.35-0.35 832.62-1.2 831.85-2.93 831.07-4.65 831.07-7.23L831.07-7.23 831.07-22.63 835.07-22.63 835.07-7.7Q835.07-5.3 836.17-4.16 837.27-3.03 839.87-3.03L839.87-3.03Q841.35-3.03 842.71-3.35 844.07-3.68 845.27-4.28L845.27-4.28 844.9-0.8Q843.72-0.2 842.15 0.15 840.57 0.5 838.9 0.5ZM845.02-24.05L844.65-20.8 827.07-20.8 827.07-24.05 845.02-24.05ZM835.15-31.03L834.97-23.65 831.1-23.65 831.07-30.5 835.15-31.03ZM853.92-24.4L853.92 0 849.87 0 849.87-24.4 853.92-24.4ZM851.9-28.4L851.9-28.4Q850.65-28.4 850.03-29.06 849.42-29.73 849.42-30.88L849.42-30.88 849.42-31Q849.42-32.18 850.03-32.83 850.65-33.48 851.9-33.48L851.9-33.48Q853.15-33.48 853.77-32.83 854.4-32.18 854.4-31L854.4-31 854.4-30.88Q854.4-29.7 853.77-29.05 853.15-28.4 851.9-28.4ZM870.32 0.63L870.32 0.63Q865.07 0.63 862.36-2.21 859.64-5.05 859.64-10.38L859.64-10.38 859.64-14.1Q859.64-19.4 862.37-22.23 865.09-25.05 870.32-25.05L870.32-25.05Q875.57-25.05 878.28-22.23 880.99-19.4 880.99-14.1L880.99-14.1 880.99-10.38Q880.99-5.05 878.28-2.21 875.57 0.63 870.32 0.63ZM870.32-2.68L870.32-2.68Q873.57-2.68 875.26-4.6 876.94-6.53 876.94-10.15L876.94-10.15 876.94-14.33Q876.94-17.93 875.26-19.84 873.57-21.75 870.32-21.75L870.32-21.75Q867.09-21.75 865.39-19.84 863.69-17.93 863.69-14.33L863.69-14.33 863.69-10.15Q863.69-6.53 865.39-4.6 867.09-2.68 870.32-2.68ZM906.99-15.63L906.99 0 902.94 0 902.94-15.18Q902.94-17.15 902.4-18.57 901.87-20 900.65-20.79 899.44-21.58 897.34-21.58L897.34-21.58Q895.42-21.58 894-20.85 892.59-20.13 891.72-18.89 890.84-17.65 890.49-16.07L890.49-16.07 889.77-18.95 890.64-18.95Q891.04-20.6 892.04-21.96 893.04-23.33 894.73-24.14 896.42-24.95 898.87-24.95L898.87-24.95Q901.77-24.95 903.55-23.85 905.34-22.75 906.17-20.69 906.99-18.63 906.99-15.63L906.99-15.63ZM890.67-18.32L890.67 0 886.62 0 886.62-24.4 890.67-24.4 890.49-18.55 890.67-18.32ZM920.89 0.55L920.89 0.55Q917.94 0.55 915.74-0.09 913.54-0.73 912.09-1.48L912.09-1.48 911.71-5.23Q913.54-4.28 915.73-3.58 917.91-2.88 920.69-2.88L920.69-2.88Q923.51-2.88 924.94-3.78 926.36-4.67 926.36-6.45L926.36-6.45 926.36-6.73Q926.36-7.88 925.83-8.63 925.29-9.38 923.89-9.95 922.49-10.53 919.91-11.1L919.91-11.1Q916.84-11.78 915.06-12.69 913.29-13.6 912.53-14.95 911.76-16.3 911.76-18.25L911.76-18.25 911.76-18.48Q911.76-21.68 913.99-23.33 916.21-24.98 920.69-24.98L920.69-24.98Q923.56-24.98 925.68-24.33 927.79-23.68 929.14-22.88L929.14-22.88 929.51-19.45Q927.89-20.4 925.79-21.03 923.69-21.65 921.06-21.65L921.06-21.65Q919.16-21.65 917.99-21.26 916.81-20.88 916.29-20.16 915.76-19.45 915.76-18.45L915.76-18.45 915.76-18.25Q915.76-17.15 916.29-16.39 916.81-15.63 918.18-15.06 919.54-14.5 921.96-13.98L921.96-13.98Q925.09-13.35 926.93-12.48 928.76-11.6 929.56-10.26 930.36-8.93 930.36-6.83L930.36-6.83 930.36-6.4Q930.36-2.95 927.96-1.2 925.56 0.55 920.89 0.55ZM936.79 0.48L936.79 0.48Q935.49 0.48 934.87-0.24 934.26-0.95 934.26-2.25L934.26-2.25 934.26-2.5Q934.26-3.78 934.87-4.48 935.49-5.18 936.79-5.18L936.79-5.18Q938.06-5.18 938.69-4.48 939.31-3.78 939.31-2.5L939.31-2.5 939.31-2.25Q939.31-0.95 938.69-0.24 938.06 0.48 936.79 0.48Z" opacity="1" transform="matrix(1,0,0,1,0,0)" fill="#f36944" class="slogan-text-1" data-fill-palette-color="secondary" id="text-1"></path></svg></g></svg></g></svg></g></svg></g></svg></g><defs></defs></svg><rect width="238.7287496106494" height="247.2" fill="none" stroke="none" visibility="hidden"></rect></g></svg></g></svg>